WixMadeforText-Italic.ufo
<glyph name="numbersign" format="2">
	<unicode hex="0023"/>
	<advance width="629"/>
	<outline>
		<contour>
			<point x="279" y="0" type="line"/>
			<point x="346" y="0" type="line"/>
			<point x="631" y="715" type="line"/>
			<point x="564" y="715" type="line"/>
		</contour>
		<contour>
			<point x="43" y="200" type="line"/>
			<point x="507" y="200" type="line"/>
			<point x="530" y="258" type="line"/>
			<point x="66" y="258" type="line"/>
		</contour>
		<contour>
			<point x="45" y="0" type="line"/>
			<point x="112" y="0" type="line"/>
			<point x="397" y="715" type="line"/>
			<point x="330" y="715" type="line"/>
		</contour>
		<contour>
			<point x="146" y="457" type="line"/>
			<point x="610" y="457" type="line"/>
			<point x="633" y="515" type="line"/>
			<point x="169" y="515" type="line"/>
		</contour>
	</outline>
</glyph>
<glyph name="dollar" format="2">
	<unicode hex="0024"/>
	<advance width="664"/>
	<outline>
		<contour>
			<point x="229" y="-116" type="line"/>
			<point x="290" y="-116" type="line"/>
			<point x="392" y="366" type="line"/>
			<point x="331" y="366" type="line"/>
		</contour>
		<contour>
			<point x="334" y="376" type="line"/>
			<point x="395" y="376" type="line"/>
			<point x="492" y="831" type="line"/>
			<point x="431" y="831" type="line"/>
		</contour>
		<contour>
			<point x="48" y="130" type="line"/>
			<point x="105" y="44"/>
			<point x="206" y="-6"/>
			<point x="319" y="-6" type="curve" smooth="yes"/>
			<point x="473" y="-6"/>
			<point x="577" y="85"/>
			<point x="577" y="219" type="curve" smooth="yes"/>
			<point x="577" y="306"/>
			<point x="502" y="373"/>
			<point x="370" y="404" type="curve" smooth="yes"/>
			<point x="267" y="428"/>
			<point x="227" y="461"/>
			<point x="227" y="520" type="curve" smooth="yes"/>
			<point x="227" y="599"/>
			<point x="297" y="652"/>
			<point x="402" y="652" type="curve" smooth="yes"/>
			<point x="485" y="652"/>
			<point x="545" y="617"/>
			<point x="592" y="543" type="curve"/>
			<point x="650" y="590" type="line"/>
			<point x="594" y="675"/>
			<point x="507" y="721"/>
			<point x="405" y="721" type="curve" smooth="yes"/>
			<point x="255" y="721"/>
			<point x="149" y="633"/>
			<point x="149" y="509" type="curve" smooth="yes"/>
			<point x="149" y="426"/>
			<point x="216" y="368"/>
			<point x="347" y="336" type="curve" smooth="yes"/>
			<point x="457" y="308"/>
			<point x="499" y="273"/>
			<point x="499" y="207" type="curve" smooth="yes"/>
			<point x="499" y="119"/>
			<point x="429" y="62"/>
			<point x="321" y="62" type="curve" smooth="yes"/>
			<point x="232" y="62"/>
			<point x="155" y="104"/>
			<point x="107" y="180" type="curve"/>
		</contour>
	</outline>
	<guideline y="-116"/>
	<guideline y="653"/>
	<guideline y="721"/>
	<guideline y="831"/>
</glyph>
<glyph name="ampersand" format="2">
	<unicode hex="0026"/>
	<advance width="648"/>
	<outline>
		<contour>
			<point x="413" y="154" type="line" smooth="yes"/>
			<point x="357" y="94"/>
			<point x="306" y="51"/>
			<point x="233" y="51" type="curve" smooth="yes"/>
			<point x="163" y="51"/>
			<point x="118" y="99"/>
			<point x="118" y="171" type="curve" smooth="yes"/>
			<point x="118" y="266"/>
			<point x="204" y="324"/>
			<point x="293" y="349" type="curve"/>
			<point x="285" y="408" type="line"/>
			<point x="155" y="365"/>
			<point x="34" y="293"/>
			<point x="34" y="161" type="curve" smooth="yes"/>
			<point x="34" y="57"/>
			<point x="115" y="-16"/>
			<point x="232" y="-16" type="curve" smooth="yes"/>
			<point x="327" y="-16"/>
			<point x="395" y="33"/>
			<point x="485" y="130" type="curve" smooth="yes"/>
			<point x="631" y="289" type="line"/>
			<point x="583" y="336" type="line"/>
		</contour>
		<contour>
			<point x="528" y="-16" type="line"/>
			<point x="585" y="30" type="line"/>
			<point x="331" y="381" type="line"/>
			<point x="317" y="400" type="line" smooth="yes"/>
			<point x="271" y="464"/>
			<point x="257" y="504"/>
			<point x="257" y="543" type="curve" smooth="yes"/>
			<point x="257" y="611"/>
			<point x="308" y="664"/>
			<point x="372" y="664" type="curve" smooth="yes"/>
			<point x="427" y="664"/>
			<point x="461" y="625"/>
			<point x="461" y="570" type="curve" smooth="yes"/>
			<point x="461" y="482"/>
			<point x="371" y="434"/>
			<point x="293" y="411" type="curve"/>
			<point x="300" y="353" type="line"/>
			<point x="417" y="386"/>
			<point x="541" y="459"/>
			<point x="541" y="579" type="curve" smooth="yes"/>
			<point x="541" y="680"/>
			<point x="457" y="731"/>
			<point x="374" y="731" type="curve" smooth="yes"/>
			<point x="262" y="731"/>
			<point x="177" y="638"/>
			<point x="177" y="534" type="curve" smooth="yes"/>
			<point x="177" y="483"/>
			<point x="197" y="439"/>
			<point x="243" y="376" type="curve"/>
			<point x="252" y="361" type="line"/>
		</contour>
	</outline>
	<guideline y="51"/>
	<guideline y="664"/>
	<guideline y="731"/>
</glyph>
<glyph name="quotesingle" format="2">
	<unicode hex="0027"/>
	<advance width="255"/>
	<outline>
		<contour>
			<point x="196" y="491" type="line"/>
			<point x="245" y="615"/>
			<point x="266" y="677"/>
			<point x="266" y="701" type="curve" smooth="yes"/>
			<point x="266" y="723"/>
			<point x="251" y="737"/>
			<point x="229" y="737" type="curve" smooth="yes"/>
			<point x="204" y="737"/>
			<point x="185" y="720"/>
			<point x="179" y="690" type="curve" smooth="yes"/>
			<point x="174" y="666"/>
			<point x="167" y="583"/>
			<point x="162" y="491" type="curve"/>
		</contour>
	</outline>
</glyph>
<glyph name="parenleft" format="2">
	<unicode hex="0028"/>
	<advance width="326"/>
	<outline>
		<contour>
			<point x="206" y="-129" type="line"/>
			<point x="164" y="-32"/>
			<point x="144" y="58"/>
			<point x="144" y="158" type="curve" smooth="yes"/>
			<point x="144" y="371"/>
			<point x="241" y="567"/>
			<point x="391" y="731" type="curve"/>
			<point x="314" y="731" type="line"/>
			<point x="165" y="582"/>
			<point x="68" y="369"/>
			<point x="68" y="150" type="curve" smooth="yes"/>
			<point x="68" y="52"/>
			<point x="88" y="-40"/>
			<point x="135" y="-129" type="curve"/>
		</contour>
	</outline>
</glyph>
<glyph name="asterisk" format="2">
	<unicode hex="002A"/>
	<advance width="398"/>
	<outline>
		<contour>
			<point x="234" y="528" type="curve"/>
			<point x="173" y="482"/>
			<point x="137" y="452"/>
			<point x="125" y="439" type="curve" smooth="yes"/>
			<point x="115" y="429"/>
			<point x="109" y="416"/>
			<point x="109" y="401" type="curve" smooth="yes"/>
			<point x="109" y="384"/>
			<point x="123" y="370"/>
			<point x="142" y="370" type="curve" smooth="yes"/>
			<point x="156" y="370"/>
			<point x="171" y="377"/>
			<point x="181" y="390" type="curve" smooth="yes"/>
			<point x="195" y="406"/>
			<point x="226" y="454"/>
			<point x="255" y="505" type="curve"/>
			<point x="265" y="454"/>
			<point x="277" y="405"/>
			<point x="284" y="390" type="curve" smooth="yes"/>
			<point x="291" y="375"/>
			<point x="300" y="370"/>
			<point x="312" y="370" type="curve" smooth="yes"/>
			<point x="335" y="370"/>
			<point x="359" y="393"/>
			<point x="359" y="416" type="curve" smooth="yes"/>
			<point x="359" y="422"/>
			<point x="358" y="426"/>
			<point x="352" y="437" type="curve" smooth="yes"/>
			<point x="343" y="456"/>
			<point x="313" y="494"/>
			<point x="284" y="527" type="curve"/>
			<point x="340" y="532"/>
			<point x="387" y="539"/>
			<point x="404" y="545" type="curve" smooth="yes"/>
			<point x="428" y="552"/>
			<point x="443" y="571"/>
			<point x="443" y="594" type="curve" smooth="yes"/>
			<point x="443" y="612"/>
			<point x="432" y="623"/>
			<point x="414" y="623" type="curve" smooth="yes"/>
			<point x="405" y="623"/>
			<point x="397" y="621"/>
			<point x="377" y="612" type="curve" smooth="yes"/>
			<point x="355" y="602"/>
			<point x="322" y="583"/>
			<point x="282" y="559" type="curve"/>
			<point x="314" y="633"/>
			<point x="333" y="685"/>
			<point x="333" y="700" type="curve" smooth="yes"/>
			<point x="333" y="720"/>
			<point x="322" y="731"/>
			<point x="303" y="731" type="curve" smooth="yes"/>
			<point x="279" y="731"/>
			<point x="261" y="714"/>
			<point x="256" y="688" type="curve" smooth="yes"/>
			<point x="254" y="680"/>
			<point x="252" y="664"/>
			<point x="251" y="642" type="curve" smooth="yes"/>
			<point x="250" y="621"/>
			<point x="250" y="593"/>
			<point x="250" y="559" type="curve"/>
			<point x="217" y="586"/>
			<point x="190" y="606"/>
			<point x="173" y="615" type="curve" smooth="yes"/>
			<point x="163" y="620"/>
			<point x="154" y="623"/>
			<point x="145" y="623" type="curve" smooth="yes"/>
			<point x="122" y="623"/>
			<point x="99" y="600"/>
			<point x="99" y="576" type="curve" smooth="yes"/>
			<point x="99" y="562"/>
			<point x="107" y="550"/>
			<point x="122" y="545" type="curve" smooth="yes"/>
			<point x="137" y="539"/>
			<point x="176" y="533"/>
		</contour>
	</outline>
</glyph>
<glyph name="comma" format="2">
	<unicode hex="002C"/>
	<advance width="229"/>
	<outline>
		<contour>
			<point x="20" y="-142" type="line"/>
			<point x="78" y="-89"/>
			<point x="132" y="0"/>
			<point x="132" y="52" type="curve" smooth="yes"/>
			<point x="132" y="86"/>
			<point x="112" y="106"/>
			<point x="81" y="106" type="curve" smooth="yes"/>
			<point x="44" y="106"/>
			<point x="16" y="78"/>
			<point x="16" y="39" type="curve" smooth="yes"/>
			<point x="16" y="10"/>
			<point x="36" y="-11"/>
			<point x="65" y="-11" type="curve"/>
			<point x="58" y="10" type="line"/>
			<point x="48" y="-39"/>
			<point x="16" y="-90"/>
			<point x="-29" y="-142" type="curve"/>
		</contour>
	</outline>
</glyph>
<glyph name="hyphen" format="2">
	<unicode hex="002D"/>
	<advance width="323"/>
	<outline>
		<contour>
			<point x="33" y="235" type="line"/>
			<point x="286" y="235" type="line"/>
			<point x="301" y="305" type="line"/>
			<point x="48" y="305" type="line"/>
		</contour>
	</outline>
</glyph>
<glyph name="slash" format="2">
	<unicode hex="002F"/>
	<advance width="461"/>
	<outline>
		<contour>
			<point x="1" y="0" type="line"/>
			<point x="80" y="0" type="line"/>
			<point x="511" y="731" type="line"/>
			<point x="431" y="731" type="line"/>
		</contour>
	</outline>
</glyph>
<glyph name="two" format="2">
	<unicode hex="0032"/>
	<advance width="520"/>
	<outline>
		<contour>
			<point x="5" y="0" type="line"/>
			<point x="446" y="0" type="line"/>
			<point x="460" y="67" type="line"/>
			<point x="87" y="67" type="line"/>
			<point x="88" y="38" type="line"/>
			<point x="319" y="236" type="line" smooth="yes"/>
			<point x="489" y="382"/>
			<point x="548" y="467"/>
			<point x="548" y="568" type="curve" smooth="yes"/>
			<point x="548" y="663"/>
			<point x="469" y="731"/>
			<point x="358" y="731" type="curve" smooth="yes"/>
			<point x="264" y="731"/>
			<point x="185" y="687"/>
			<point x="114" y="595" type="curve"/>
			<point x="162" y="544" type="line"/>
			<point x="217" y="621"/>
			<point x="285" y="664"/>
			<point x="351" y="664" type="curve" smooth="yes"/>
			<point x="424" y="664"/>
			<point x="469" y="625"/>
			<point x="469" y="561" type="curve" smooth="yes"/>
			<point x="469" y="479"/>
			<point x="420" y="408"/>
			<point x="283" y="291" type="curve" smooth="yes"/>
			<point x="18" y="64" type="line"/>
		</contour>
	</outline>
</glyph>
<glyph name="three" format="2">
	<unicode hex="0033"/>
	<advance width="568"/>
	<outline>
		<contour>
			<point x="20" y="123" type="line"/>
			<point x="55" y="41"/>
			<point x="151" y="-16"/>
			<point x="256" y="-16" type="curve" smooth="yes"/>
			<point x="398" y="-16"/>
			<point x="506" y="82"/>
			<point x="506" y="212" type="curve" smooth="yes"/>
			<point x="506" y="323"/>
			<point x="423" y="394"/>
			<point x="293" y="394" type="curve" smooth="yes"/>
			<point x="277" y="394" type="line"/>
			<point x="268" y="357" type="line"/>
			<point x="312" y="357" type="line" smooth="yes"/>
			<point x="447" y="357"/>
			<point x="558" y="448"/>
			<point x="558" y="559" type="curve" smooth="yes"/>
			<point x="558" y="662"/>
			<point x="478" y="731"/>
			<point x="359" y="731" type="curve" smooth="yes"/>
			<point x="268" y="731"/>
			<point x="189" y="690"/>
			<point x="131" y="614" type="curve"/>
			<point x="178" y="560" type="line"/>
			<point x="223" y="626"/>
			<point x="287" y="664"/>
			<point x="355" y="664" type="curve" smooth="yes"/>
			<point x="431" y="664"/>
			<point x="477" y="623"/>
			<point x="477" y="554" type="curve" smooth="yes"/>
			<point x="477" y="473"/>
			<point x="395" y="407"/>
			<point x="294" y="407" type="curve" smooth="yes"/>
			<point x="234" y="407" type="line"/>
			<point x="219" y="340" type="line"/>
			<point x="279" y="340" type="line" smooth="yes"/>
			<point x="367" y="340"/>
			<point x="425" y="287"/>
			<point x="425" y="206" type="curve" smooth="yes"/>
			<point x="425" y="119"/>
			<point x="353" y="51"/>
			<point x="260" y="51" type="curve" smooth="yes"/>
			<point x="175" y="51"/>
			<point x="118" y="89"/>
			<point x="78" y="171" type="curve"/>
		</contour>
	</outline>
</glyph>
<glyph name="four" format="2">
	<unicode hex="0034"/>
	<advance width="631"/>
	<outline>
		<contour>
			<point x="34" y="178" type="line"/>
			<point x="574" y="178" type="line"/>
			<point x="589" y="245" type="line"/>
			<point x="76" y="245" type="line"/>
			<point x="86" y="191" type="line"/>
			<point x="523" y="641" type="line"/>
			<point x="494" y="641" type="line"/>
			<point x="357" y="0" type="line"/>
			<point x="435" y="0" type="line"/>
			<point x="587" y="715" type="line"/>
			<point x="509" y="715" type="line"/>
			<point x="49" y="245" type="line"/>
		</contour>
	</outline>
</glyph>
<glyph name="five" format="2">
	<unicode hex="0035"/>
	<advance width="557"/>
	<outline>
		<contour>
			<point x="20" y="123" type="line"/>
			<point x="54" y="39"/>
			<point x="145" y="-16"/>
			<point x="247" y="-16" type="curve" smooth="yes"/>
			<point x="398" y="-16"/>
			<point x="524" y="113"/>
			<point x="524" y="269" type="curve" smooth="yes"/>
			<point x="524" y="392"/>
			<point x="444" y="472"/>
			<point x="322" y="472" type="curve" smooth="yes"/>
			<point x="250" y="472"/>
			<point x="189" y="435"/>
			<point x="151" y="368" type="curve"/>
			<point x="168" y="368" type="line"/>
			<point x="264" y="669" type="line"/>
			<point x="228" y="648" type="line"/>
			<point x="556" y="648" type="line"/>
			<point x="570" y="715" type="line"/>
			<point x="206" y="715" type="line"/>
			<point x="78" y="311" type="line"/>
			<point x="151" y="311" type="line"/>
			<point x="196" y="372"/>
			<point x="252" y="405"/>
			<point x="314" y="405" type="curve" smooth="yes"/>
			<point x="395" y="405"/>
			<point x="444" y="350"/>
			<point x="444" y="260" type="curve" smooth="yes"/>
			<point x="444" y="146"/>
			<point x="353" y="51"/>
			<point x="242" y="51" type="curve" smooth="yes"/>
			<point x="171" y="51"/>
			<point x="113" y="94"/>
			<point x="78" y="171" type="curve"/>
		</contour>
	</outline>
</glyph>
<glyph name="six" format="2">
	<unicode hex="0036"/>
	<advance width="613"/>
	<outline>
		<contour>
			<point x="352" y="470" type="curve" smooth="yes"/>
			<point x="267" y="470"/>
			<point x="195" y="428"/>
			<point x="157" y="356" type="curve"/>
			<point x="162" y="345" type="line"/>
			<point x="224" y="465"/>
			<point x="347" y="581"/>
			<point x="555" y="715" type="curve"/>
			<point x="439" y="715" type="line"/>
			<point x="186" y="551"/>
			<point x="54" y="374"/>
			<point x="54" y="198" type="curve" smooth="yes"/>
			<point x="54" y="68"/>
			<point x="136" y="-16"/>
			<point x="263" y="-16" type="curve" smooth="yes"/>
			<point x="420" y="-16"/>
			<point x="547" y="112"/>
			<point x="547" y="268" type="curve" smooth="yes"/>
			<point x="547" y="386"/>
			<point x="466" y="470"/>
		</contour>
		<contour>
			<point x="330" y="404" type="curve" smooth="yes"/>
			<point x="413" y="404"/>
			<point x="467" y="347"/>
			<point x="467" y="260" type="curve" smooth="yes"/>
			<point x="467" y="147"/>
			<point x="375" y="51"/>
			<point x="267" y="51" type="curve" smooth="yes"/>
			<point x="184" y="51"/>
			<point x="130" y="109"/>
			<point x="130" y="197" type="curve" smooth="yes"/>
			<point x="130" y="310"/>
			<point x="221" y="404"/>
		</contour>
	</outline>
</glyph>
<glyph name="seven" format="2">
	<unicode hex="0037"/>
	<advance width="584"/>
	<outline>
		<contour>
			<point x="47" y="0" type="line"/>
			<point x="137" y="0" type="line"/>
			<point x="607" y="648" type="line"/>
			<point x="621" y="715" type="line"/>
			<point x="152" y="715" type="line"/>
			<point x="138" y="648" type="line"/>
			<point x="555" y="648" type="line"/>
			<point x="550" y="688" type="line"/>
		</contour>
	</outline>
</glyph>
<glyph name="less" format="2">
	<unicode hex="003C"/>
	<advance width="632"/>
	<outline>
		<contour>
			<point x="136" y="316" type="line"/>
			<point x="479" y="137" type="line"/>
			<point x="494" y="205" type="line"/>
			<point x="193" y="356" type="line"/>
			<point x="558" y="506" type="line"/>
			<point x="573" y="582" type="line"/>
			<point x="154" y="404" type="line"/>
		</contour>
	</outline>
</glyph>
<glyph name="equal" format="2">
	<unicode hex="003D"/>
	<advance width="632"/>
	<outline>
		<contour>
			<point x="134" y="222" type="line"/>
			<point x="487" y="222" type="line"/>
			<point x="501" y="287" type="line"/>
			<point x="148" y="287" type="line"/>
		</contour>
		<contour>
			<point x="177" y="427" type="line"/>
			<point x="530" y="427" type="line"/>
			<point x="544" y="492" type="line"/>
			<point x="191" y="492" type="line"/>
		</contour>
	</outline>
</glyph>
<glyph name="greater" format="2">
	<unicode hex="003E"/>
	<advance width="632"/>
	<outline>
		<contour>
			<point x="539" y="403" type="line"/>
			<point x="196" y="582" type="line"/>
			<point x="181" y="514" type="line"/>
			<point x="482" y="363" type="line"/>
			<point x="117" y="213" type="line"/>
			<point x="102" y="137" type="line"/>
			<point x="521" y="315" type="line"/>
		</contour>
	</outline>
</glyph>
<glyph name="question" format="2">
	<unicode hex="003F"/>
	<advance width="559"/>
	<outline>
		<contour>
			<point x="275" y="204" type="line"/>
			<point x="292" y="281"/>
			<point x="321" y="321"/>
			<point x="393" y="362" type="curve" smooth="yes"/>
			<point x="504" y="426"/>
			<point x="553" y="489"/>
			<point x="553" y="566" type="curve" smooth="yes"/>
			<point x="553" y="660"/>
			<point x="473" y="731"/>
			<point x="368" y="731" type="curve" smooth="yes"/>
			<point x="272" y="731"/>
			<point x="194" y="689"/>
			<point x="119" y="596" type="curve"/>
			<point x="168" y="544" type="line"/>
			<point x="227" y="622"/>
			<point x="294" y="664"/>
			<point x="361" y="664" type="curve" smooth="yes"/>
			<point x="431" y="664"/>
			<point x="477" y="622"/>
			<point x="477" y="558" type="curve" smooth="yes"/>
			<point x="477" y="503"/>
			<point x="442" y="458"/>
			<point x="367" y="416" type="curve" smooth="yes"/>
			<point x="262" y="353"/>
			<point x="232" y="310"/>
			<point x="217" y="204" type="curve"/>
		</contour>
		<contour>
			<point x="163" y="37" type="curve" smooth="yes"/>
			<point x="163" y="8"/>
			<point x="184" y="-12"/>
			<point x="213" y="-12" type="curve" smooth="yes"/>
			<point x="252" y="-12"/>
			<point x="280" y="16"/>
			<point x="280" y="57" type="curve" smooth="yes"/>
			<point x="280" y="86"/>
			<point x="259" y="106"/>
			<point x="230" y="106" type="curve" smooth="yes"/>
			<point x="191" y="106"/>
			<point x="163" y="78"/>
		</contour>
	</outline>
</glyph>
<glyph name="A" format="2">
	<unicode hex="0041"/>
	<advance width="694"/>
	<outline>
		<contour>
			<point x="153" y="198" type="line"/>
			<point x="522" y="198" type="line"/>
			<point x="537" y="268" type="line"/>
			<point x="168" y="268" type="line"/>
		</contour>
		<contour>
			<point x="-20" y="0" type="line"/>
			<point x="67" y="0" type="line"/>
			<point x="460" y="666" type="line"/>
			<point x="424" y="666" type="line"/>
			<point x="533" y="0" type="line"/>
			<point x="614" y="0" type="line"/>
			<point x="493" y="715" type="line"/>
			<point x="407" y="715" type="line"/>
		</contour>
	</outline>
	<anchor name="ogonek.UC" x="520" y="-30"/>
	<anchor name="top.UC" x="452" y="750"/>
</glyph>
<glyph name="B" format="2">
	<unicode hex="0042"/>
	<advance width="663"/>
	<outline>
		<contour>
			<point x="54" y="0" type="line"/>
			<point x="322" y="0" type="line" smooth="yes"/>
			<point x="487" y="0"/>
			<point x="593" y="87"/>
			<point x="593" y="224" type="curve" smooth="yes"/>
			<point x="593" y="328"/>
			<point x="510" y="397"/>
			<point x="384" y="397" type="curve" smooth="yes"/>
			<point x="227" y="397" type="line"/>
			<point x="217" y="349" type="line"/>
			<point x="376" y="349" type="line" smooth="yes"/>
			<point x="521" y="349"/>
			<point x="624" y="432"/>
			<point x="624" y="548" type="curve" smooth="yes"/>
			<point x="624" y="648"/>
			<point x="552" y="715"/>
			<point x="446" y="715" type="curve" smooth="yes"/>
			<point x="205" y="715" type="line"/>
		</contour>
		<contour>
			<point x="149" y="70" type="line"/>
			<point x="270" y="645" type="line"/>
			<point x="430" y="645" type="line" smooth="yes"/>
			<point x="500" y="645"/>
			<point x="543" y="604"/>
			<point x="543" y="539" type="curve" smooth="yes"/>
			<point x="543" y="459"/>
			<point x="475" y="403"/>
			<point x="378" y="403" type="curve" smooth="yes"/>
			<point x="209" y="403" type="line"/>
			<point x="194" y="333" type="line"/>
			<point x="392" y="333" type="line" smooth="yes"/>
			<point x="470" y="333"/>
			<point x="512" y="292"/>
			<point x="512" y="217" type="curve" smooth="yes"/>
			<point x="512" y="127"/>
			<point x="444" y="70"/>
			<point x="336" y="70" type="curve" smooth="yes"/>
		</contour>
	</outline>
</glyph>
<glyph name="C" format="2">
	<unicode hex="0043"/>
	<advance width="708"/>
	<outline>
		<contour>
			<point x="603" y="174" type="line"/>
			<point x="539" y="96"/>
			<point x="464" y="56"/>
			<point x="381" y="56" type="curve" smooth="yes"/>
			<point x="250" y="56"/>
			<point x="162" y="152"/>
			<point x="162" y="295" type="curve" smooth="yes"/>
			<point x="162" y="492"/>
			<point x="306" y="659"/>
			<point x="477" y="659" type="curve" smooth="yes"/>
			<point x="564" y="659"/>
			<point x="625" y="623"/>
			<point x="671" y="544" type="curve"/>
			<point x="734" y="592" type="line"/>
			<point x="681" y="681"/>
			<point x="592" y="731"/>
			<point x="484" y="731" type="curve" smooth="yes"/>
			<point x="263" y="731"/>
			<point x="79" y="533"/>
			<point x="79" y="295" type="curve" smooth="yes"/>
			<point x="79" y="106"/>
			<point x="197" y="-16"/>
			<point x="381" y="-16" type="curve" smooth="yes"/>
			<point x="485" y="-16"/>
			<point x="578" y="29"/>
			<point x="652" y="114" type="curve"/>
		</contour>
	</outline>
	<anchor name="bottom.UC" x="355" y="-50"/>
	<anchor name="top.UC" x="480" y="750"/>
</glyph>
<glyph name="F" format="2">
	<unicode hex="0046"/>
	<advance width="572"/>
	<outline>
		<contour>
			<point x="54" y="0" type="line"/>
			<point x="134" y="0" type="line"/>
			<point x="270" y="645" type="line"/>
			<point x="619" y="645" type="line"/>
			<point x="634" y="715" type="line"/>
			<point x="205" y="715" type="line"/>
		</contour>
		<contour>
			<point x="194" y="331" type="line"/>
			<point x="534" y="331" type="line"/>
			<point x="549" y="401" type="line"/>
			<point x="209" y="401" type="line"/>
		</contour>
	</outline>
</glyph>
<glyph name="G" format="2">
	<unicode hex="0047"/>
	<advance width="769"/>
	<outline>
		<contour>
			<point x="576" y="0" type="line"/>
			<point x="652" y="0" type="line"/>
			<point x="731" y="373" type="line"/>
			<point x="432" y="373" type="line"/>
			<point x="417" y="303" type="line"/>
			<point x="678" y="303" type="line"/>
			<point x="647" y="341" type="line"/>
			<point x="606" y="149" type="line"/>
			<point x="626" y="196" type="line"/>
			<point x="571" y="108"/>
			<point x="481" y="56"/>
			<point x="381" y="56" type="curve" smooth="yes"/>
			<point x="250" y="56"/>
			<point x="162" y="152"/>
			<point x="162" y="295" type="curve" smooth="yes"/>
			<point x="162" y="492"/>
			<point x="306" y="659"/>
			<point x="477" y="659" type="curve" smooth="yes"/>
			<point x="569" y="659"/>
			<point x="633" y="623"/>
			<point x="681" y="544" type="curve"/>
			<point x="744" y="592" type="line"/>
			<point x="689" y="681"/>
			<point x="596" y="731"/>
			<point x="484" y="731" type="curve" smooth="yes"/>
			<point x="263" y="731"/>
			<point x="79" y="533"/>
			<point x="79" y="295" type="curve" smooth="yes"/>
			<point x="79" y="106"/>
			<point x="197" y="-16"/>
			<point x="381" y="-16" type="curve" smooth="yes"/>
			<point x="477" y="-16"/>
			<point x="558" y="24"/>
			<point x="620" y="103" type="curve"/>
			<point x="598" y="106" type="line"/>
		</contour>
	</outline>
	<anchor name="top.UC" x="478" y="750"/>
	<anchor name="bottom.UC" x="375" y="-50"/>
</glyph>
<glyph name="H" format="2">
	<unicode hex="0048"/>
	<advance width="743"/>
	<outline>
		<contour>
			<point x="506" y="0" type="line"/>
			<point x="586" y="0" type="line"/>
			<point x="737" y="715" type="line"/>
			<point x="657" y="715" type="line"/>
		</contour>
		<contour>
			<point x="54" y="0" type="line"/>
			<point x="134" y="0" type="line"/>
			<point x="285" y="715" type="line"/>
			<point x="205" y="715" type="line"/>
		</contour>
		<contour>
			<point x="195" y="336" type="line"/>
			<point x="586" y="336" type="line"/>
			<point x="601" y="407" type="line"/>
			<point x="210" y="407" type="line"/>
		</contour>
	</outline>
	<anchor name="bottom.UC" x="318" y="-50"/>
	<anchor name="top.UC" x="469" y="750"/>
</glyph>
<glyph name="I" format="2">
	<unicode hex="0049"/>
	<advance width="291"/>
	<outline>
		<contour>
			<point x="54" y="0" type="line"/>
			<point x="134" y="0" type="line"/>
			<point x="285" y="715" type="line"/>
			<point x="205" y="715" type="line"/>
		</contour>
	</outline>
	<anchor name="ogonek.UC" x="43" y="-30"/>
	<anchor name="top.UC" x="252" y="750"/>
</glyph>
<glyph name="J" format="2">
	<unicode hex="004A"/>
	<advance width="632"/>
	<outline>
		<contour>
			<point x="39" y="220" type="line"/>
			<point x="37" y="205"/>
			<point x="37" y="198"/>
			<point x="37" y="185" type="curve" smooth="yes"/>
			<point x="37" y="46"/>
			<point x="136" y="-16"/>
			<point x="249" y="-16" type="curve" smooth="yes"/>
			<point x="421" y="-16"/>
			<point x="509" y="97"/>
			<point x="541" y="250" type="curve" smooth="yes"/>
			<point x="640" y="715" type="line"/>
			<point x="560" y="715" type="line"/>
			<point x="466" y="272" type="line" smooth="yes"/>
			<point x="436" y="127"/>
			<point x="369" y="56"/>
			<point x="255" y="56" type="curve" smooth="yes"/>
			<point x="165" y="56"/>
			<point x="116" y="105"/>
			<point x="116" y="194" type="curve" smooth="yes"/>
			<point x="116" y="205"/>
			<point x="116" y="221"/>
			<point x="118" y="230" type="curve"/>
		</contour>
	</outline>
	<anchor name="top.UC" x="602" y="750"/>
	<guideline x="408" y="0" angle="102"/>
	<guideline x="488" y="0" angle="102"/>
</glyph>
<glyph name="L" format="2">
	<unicode hex="004C"/>
	<advance width="573"/>
	<outline>
		<contour>
			<point x="54" y="0" type="line"/>
			<point x="483" y="0" type="line"/>
			<point x="498" y="71" type="line"/>
			<point x="149" y="71" type="line"/>
			<point x="285" y="715" type="line"/>
			<point x="205" y="715" type="line"/>
		</contour>
	</outline>
	<anchor name="bottom.UC" x="270" y="-50"/>
	<anchor name="top.UC" x="254" y="750"/>
	<anchor name="top_right" x="429" y="540"/>
</glyph>
<glyph name="P" format="2">
	<unicode hex="0050"/>
	<advance width="628"/>
	<outline>
		<contour>
			<point x="54" y="0" type="line"/>
			<point x="134" y="0" type="line"/>
			<point x="270" y="645" type="line"/>
			<point x="434" y="645" type="line" smooth="yes"/>
			<point x="511" y="645"/>
			<point x="555" y="608"/>
			<point x="555" y="543" type="curve" smooth="yes"/>
			<point x="555" y="443"/>
			<point x="489" y="383"/>
			<point x="380" y="383" type="curve" smooth="yes"/>
			<point x="205" y="383" type="line"/>
			<point x="190" y="313" type="line"/>
			<point x="367" y="313" type="line" smooth="yes"/>
			<point x="531" y="313"/>
			<point x="637" y="404"/>
			<point x="637" y="544" type="curve" smooth="yes"/>
			<point x="637" y="649"/>
			<point x="564" y="715"/>
			<point x="449" y="715" type="curve" smooth="yes"/>
			<point x="205" y="715" type="line"/>
		</contour>
	</outline>
</glyph>
<glyph name="Q" format="2">
	<unicode hex="0051"/>
	<advance width="818"/>
	<outline>
		<contour>
			<point x="509" y="265" type="line"/>
			<point x="452" y="225" type="line"/>
			<point x="641" y="-43" type="line"/>
			<point x="698" y="-3" type="line"/>
		</contour>
		<contour>
			<point x="487" y="731" type="curve" smooth="yes"/>
			<point x="263" y="731"/>
			<point x="79" y="535"/>
			<point x="79" y="295" type="curve" smooth="yes"/>
			<point x="79" y="108"/>
			<point x="198" y="-16"/>
			<point x="379" y="-16" type="curve" smooth="yes"/>
			<point x="603" y="-16"/>
			<point x="787" y="180"/>
			<point x="787" y="420" type="curve" smooth="yes"/>
			<point x="787" y="607"/>
			<point x="668" y="731"/>
		</contour>
		<contour>
			<point x="481" y="659" type="curve" smooth="yes"/>
			<point x="615" y="659"/>
			<point x="704" y="564"/>
			<point x="704" y="420" type="curve" smooth="yes"/>
			<point x="704" y="225"/>
			<point x="556" y="56"/>
			<point x="385" y="56" type="curve" smooth="yes"/>
			<point x="251" y="56"/>
			<point x="162" y="151"/>
			<point x="162" y="295" type="curve" smooth="yes"/>
			<point x="162" y="490"/>
			<point x="310" y="659"/>
		</contour>
	</outline>
	<guideline x="459" y="0" angle="102"/>
</glyph>
<glyph name="V" format="2">
	<unicode hex="0056"/>
	<advance width="683"/>
	<outline>
		<contour>
			<point x="247" y="0" type="line"/>
			<point x="332" y="0" type="line"/>
			<point x="740" y="715" type="line"/>
			<point x="654" y="715" type="line"/>
			<point x="280" y="45" type="line"/>
			<point x="312" y="45" type="line"/>
			<point x="226" y="715" type="line"/>
			<point x="143" y="715" type="line"/>
		</contour>
	</outline>
</glyph>
<glyph name="Y" format="2">
	<unicode hex="0059"/>
	<advance width="645"/>
	<outline>
		<contour>
			<point x="231" y="0" type="line"/>
			<point x="311" y="0" type="line"/>
			<point x="377" y="312" type="line"/>
			<point x="708" y="715" type="line"/>
			<point x="617" y="715" type="line"/>
			<point x="332" y="358" type="line"/>
			<point x="359" y="358" type="line"/>
			<point x="223" y="715" type="line"/>
			<point x="138" y="715" type="line"/>
			<point x="297" y="313" type="line"/>
		</contour>
	</outline>
	<anchor name="top.UC" x="431" y="750"/>
</glyph>
<glyph name="Z" format="2">
	<unicode hex="005A"/>
	<advance width="587"/>
	<outline>
		<contour>
			<point x="-3" y="0" type="line"/>
			<point x="482" y="0" type="line"/>
			<point x="497" y="71" type="line"/>
			<point x="109" y="71" type="line"/>
			<point x="607" y="644" type="line"/>
			<point x="622" y="715" type="line"/>
			<point x="152" y="715" type="line"/>
			<point x="136" y="644" type="line"/>
			<point x="511" y="644" type="line"/>
			<point x="13" y="71" type="line"/>
		</contour>
	</outline>
	<anchor name="top.UC" x="381" y="750"/>
</glyph>
<glyph name="bracketleft" format="2">
	<unicode hex="005B"/>
	<advance width="305"/>
	<outline>
		<contour>
			<point x="6" y="-129" type="line"/>
			<point x="192" y="-129" type="line"/>
			<point x="205" y="-65" type="line"/>
			<point x="96" y="-65" type="line"/>
			<point x="251" y="667" type="line"/>
			<point x="360" y="667" type="line"/>
			<point x="374" y="731" type="line"/>
			<point x="188" y="731" type="line"/>
		</contour>
	</outline>
</glyph>
<glyph name="backslash" format="2">
	<unicode hex="005C"/>
	<advance width="456"/>
	<outline>
		<contour>
			<point x="351" y="0" type="line"/>
			<point x="230" y="731" type="line"/>
			<point x="156" y="731" type="line"/>
			<point x="277" y="0" type="line"/>
		</contour>
	</outline>
</glyph>
<glyph name="bracketright" format="2">
	<unicode hex="005D"/>
	<advance width="305"/>
	<outline>
		<contour>
			<point x="-45" y="-129" type="line"/>
			<point x="141" y="-129" type="line"/>
			<point x="323" y="731" type="line"/>
			<point x="137" y="731" type="line"/>
			<point x="124" y="667" type="line"/>
			<point x="233" y="667" type="line"/>
			<point x="78" y="-65" type="line"/>
			<point x="-32" y="-65" type="line"/>
		</contour>
	</outline>
</glyph>
<glyph name="asciicircum" format="2">
	<unicode hex="005E"/>
	<advance width="632"/>
	<outline>
		<contour>
			<point x="123" y="354" type="line"/>
			<point x="203" y="354" type="line"/>
			<point x="441" y="715" type="line"/>
			<point x="367" y="715" type="line"/>
		</contour>
		<contour>
			<point x="472" y="354" type="line"/>
			<point x="547" y="354" type="line"/>
			<point x="454" y="715" type="line"/>
			<point x="386" y="715" type="line"/>
		</contour>
	</outline>
</glyph>
<glyph name="underscore" format="2">
	<unicode hex="005F"/>
	<advance width="450"/>
	<outline>
		<contour>
			<point x="-81" y="-129" type="line"/>
			<point x="373" y="-129" type="line"/>
			<point x="386" y="-65" type="line"/>
			<point x="-69" y="-65" type="line"/>
		</contour>
	</outline>
</glyph>
<glyph name="a" format="2">
	<unicode hex="0061"/>
	<advance width="538"/>
	<outline>
		<contour>
			<point x="340" y="0" type="line"/>
			<point x="412" y="0" type="line"/>
			<point x="473" y="290" type="line" smooth="yes"/>
			<point x="477" y="310"/>
			<point x="480" y="334"/>
			<point x="480" y="351" type="curve" smooth="yes"/>
			<point x="480" y="451"/>
			<point x="418" y="508"/>
			<point x="308" y="508" type="curve" smooth="yes"/>
			<point x="224" y="508"/>
			<point x="142" y="474"/>
			<point x="89" y="417" type="curve"/>
			<point x="135" y="365" type="line"/>
			<point x="180" y="415"/>
			<point x="238" y="442"/>
			<point x="301" y="442" type="curve" smooth="yes"/>
			<point x="385" y="442"/>
			<point x="419" y="393"/>
			<point x="401" y="301" type="curve" smooth="yes"/>
			<point x="363" y="114" type="line"/>
			<point x="362" y="99" type="line"/>
		</contour>
		<contour>
			<point x="263" y="303" type="line" smooth="yes"/>
			<point x="114" y="303"/>
			<point x="17" y="235"/>
			<point x="17" y="131" type="curve" smooth="yes"/>
			<point x="17" y="45"/>
			<point x="84" y="-16"/>
			<point x="180" y="-16" type="curve" smooth="yes"/>
			<point x="296" y="-16"/>
			<point x="382" y="75"/>
			<point x="424" y="242" type="curve"/>
			<point x="406" y="259" type="line"/>
			<point x="363" y="127"/>
			<point x="283" y="48"/>
			<point x="194" y="48" type="curve" smooth="yes"/>
			<point x="136" y="48"/>
			<point x="97" y="82"/>
			<point x="97" y="133" type="curve" smooth="yes"/>
			<point x="97" y="201"/>
			<point x="158" y="241"/>
			<point x="262" y="241" type="curve" smooth="yes"/>
			<point x="399" y="241" type="line"/>
			<point x="415" y="303" type="line"/>
		</contour>
	</outline>
	<anchor name="top.LC" x="318" y="544"/>
	<anchor name="ogonek.LC" x="330" y="-30"/>
</glyph>
<glyph name="b" format="2">
	<unicode hex="0062"/>
	<advance width="617"/>
	<outline>
		<contour>
			<point x="33" y="0" type="line"/>
			<point x="110" y="0" type="line"/>
			<point x="138" y="131" type="line" smooth="yes"/>
			<point x="181" y="332"/>
			<point x="260" y="441"/>
			<point x="364" y="441" type="curve" smooth="yes"/>
			<point x="442" y="441"/>
			<point x="489" y="387"/>
			<point x="489" y="296" type="curve" smooth="yes"/>
			<point x="489" y="159"/>
			<point x="401" y="51"/>
			<point x="290" y="51" type="curve" smooth="yes"/>
			<point x="209" y="51"/>
			<point x="140" y="105"/>
			<point x="130" y="176" type="curve"/>
			<point x="98" y="140" type="line"/>
			<point x="110" y="48"/>
			<point x="189" y="-16"/>
			<point x="293" y="-16" type="curve" smooth="yes"/>
			<point x="446" y="-16"/>
			<point x="570" y="124"/>
			<point x="570" y="297" type="curve" smooth="yes"/>
			<point x="570" y="426"/>
			<point x="498" y="508"/>
			<point x="384" y="508" type="curve" smooth="yes"/>
			<point x="292" y="508"/>
			<point x="219" y="455"/>
			<point x="173" y="352" type="curve"/>
			<point x="184" y="356" type="line"/>
			<point x="263" y="720" type="line"/>
			<point x="186" y="720" type="line"/>
		</contour>
	</outline>
	<guideline y="441"/>
</glyph>
<glyph name="c" format="2">
	<unicode hex="0063"/>
	<advance width="536"/>
	<outline>
		<contour>
			<point x="422" y="139" type="line"/>
			<point x="380" y="81"/>
			<point x="326" y="51"/>
			<point x="265" y="51" type="curve" smooth="yes"/>
			<point x="179" y="51"/>
			<point x="128" y="109"/>
			<point x="128" y="196" type="curve" smooth="yes"/>
			<point x="128" y="333"/>
			<point x="211" y="441"/>
			<point x="325" y="441" type="curve" smooth="yes"/>
			<point x="385" y="441"/>
			<point x="431" y="413"/>
			<point x="459" y="357" type="curve"/>
			<point x="520" y="399" type="line"/>
			<point x="483" y="469"/>
			<point x="414" y="508"/>
			<point x="328" y="508" type="curve" smooth="yes"/>
			<point x="171" y="508"/>
			<point x="47" y="368"/>
			<point x="47" y="196" type="curve" smooth="yes"/>
			<point x="47" y="69"/>
			<point x="134" y="-16"/>
			<point x="262" y="-16" type="curve" smooth="yes"/>
			<point x="341" y="-16"/>
			<point x="418" y="21"/>
			<point x="472" y="85" type="curve"/>
		</contour>
	</outline>
	<anchor name="top.LC" x="335" y="544"/>
	<anchor name="bottom.LC" x="264" y="-50"/>
</glyph>
<glyph name="e" format="2">
	<unicode hex="0065"/>
	<advance width="566"/>
	<outline>
		<contour>
			<point x="113" y="219" type="line"/>
			<point x="329" y="219" type="line" smooth="yes"/>
			<point x="449" y="219"/>
			<point x="522" y="271"/>
			<point x="522" y="357" type="curve" smooth="yes"/>
			<point x="522" y="447"/>
			<point x="447" y="508"/>
			<point x="336" y="508" type="curve" smooth="yes"/>
			<point x="173" y="508"/>
			<point x="47" y="372"/>
			<point x="47" y="196" type="curve" smooth="yes"/>
			<point x="47" y="66"/>
			<point x="135" y="-16"/>
			<point x="272" y="-16" type="curve" smooth="yes"/>
			<point x="359" y="-16"/>
			<point x="430" y="18"/>
			<point x="488" y="87" type="curve"/>
			<point x="439" y="140" type="line"/>
			<point x="396" y="82"/>
			<point x="339" y="51"/>
			<point x="275" y="51" type="curve" smooth="yes"/>
			<point x="186" y="51"/>
			<point x="128" y="108"/>
			<point x="128" y="195" type="curve" smooth="yes"/>
			<point x="128" y="338"/>
			<point x="216" y="441"/>
			<point x="337" y="441" type="curve" smooth="yes"/>
			<point x="401" y="441"/>
			<point x="446" y="406"/>
			<point x="446" y="357" type="curve" smooth="yes"/>
			<point x="446" y="309"/>
			<point x="404" y="282"/>
			<point x="329" y="282" type="curve" smooth="yes"/>
			<point x="113" y="282" type="line"/>
		</contour>
	</outline>
	<anchor name="top.LC" x="355" y="544"/>
	<anchor name="ogonek.LC.round" x="365" y="-30"/>
</glyph>
<glyph name="f" format="2">
	<unicode hex="0066"/>
	<advance width="350"/>
	<outline>
		<contour>
			<point x="72" y="0" type="line"/>
			<point x="149" y="0" type="line"/>
			<point x="275" y="595" type="line" smooth="yes"/>
			<point x="284" y="637"/>
			<point x="304" y="656"/>
			<point x="341" y="656" type="curve" smooth="yes"/>
			<point x="416" y="656" type="line"/>
			<point x="430" y="720" type="line"/>
			<point x="336" y="720" type="line" smooth="yes"/>
			<point x="260" y="720"/>
			<point x="216" y="681"/>
			<point x="199" y="598" type="curve" smooth="yes"/>
		</contour>
		<contour>
			<point x="73" y="426" type="line"/>
			<point x="367" y="426" type="line"/>
			<point x="381" y="492" type="line"/>
			<point x="87" y="492" type="line"/>
		</contour>
	</outline>
	<guideline x="72" y="0" angle="102"/>
</glyph>
<glyph name="g" format="2">
	<unicode hex="0067"/>
	<advance width="606"/>
	<outline>
		<contour>
			<point x="17" y="-109" type="line"/>
			<point x="61" y="-175"/>
			<point x="136" y="-210"/>
			<point x="225" y="-210" type="curve" smooth="yes"/>
			<point x="368" y="-210"/>
			<point x="450" y="-133"/>
			<point x="485" y="32" type="curve" smooth="yes"/>
			<point x="582" y="492" type="line"/>
			<point x="506" y="492" type="line"/>
			<point x="472" y="331" type="line"/>
			<point x="495" y="348" type="line"/>
			<point x="484" y="449"/>
			<point x="423" y="508"/>
			<point x="326" y="508" type="curve" smooth="yes"/>
			<point x="176" y="508"/>
			<point x="47" y="368"/>
			<point x="47" y="200" type="curve" smooth="yes"/>
			<point x="47" y="71"/>
			<point x="123" y="-6"/>
			<point x="237" y="-6" type="curve" smooth="yes"/>
			<point x="356" y="-6"/>
			<point x="435" y="91"/>
			<point x="480" y="254" type="curve"/>
			<point x="459" y="292" type="line"/>
			<point x="418" y="150"/>
			<point x="335" y="61"/>
			<point x="248" y="61" type="curve" smooth="yes"/>
			<point x="172" y="61"/>
			<point x="128" y="111"/>
			<point x="128" y="200" type="curve" smooth="yes"/>
			<point x="128" y="335"/>
			<point x="217" y="441"/>
			<point x="324" y="441" type="curve" smooth="yes"/>
			<point x="403" y="441"/>
			<point x="452" y="384"/>
			<point x="452" y="286" type="curve" smooth="yes"/>
			<point x="452" y="252"/>
			<point x="449" y="224"/>
			<point x="442" y="190" type="curve" smooth="yes"/>
			<point x="409" y="36" type="line" smooth="yes"/>
			<point x="384" y="-83"/>
			<point x="323" y="-142"/>
			<point x="225" y="-142" type="curve" smooth="yes"/>
			<point x="161" y="-142"/>
			<point x="109" y="-114"/>
			<point x="74" y="-61" type="curve"/>
		</contour>
	</outline>
	<anchor name="top.LC" x="330" y="544"/>
</glyph>
<glyph name="h" format="2">
	<unicode hex="0068"/>
	<advance width="579"/>
	<outline>
		<contour>
			<point x="33" y="0" type="line"/>
			<point x="110" y="0" type="line"/>
			<point x="138" y="131" type="line" smooth="yes"/>
			<point x="183" y="340"/>
			<point x="251" y="440"/>
			<point x="356" y="440" type="curve" smooth="yes"/>
			<point x="411" y="440"/>
			<point x="444" y="407"/>
			<point x="444" y="354" type="curve" smooth="yes"/>
			<point x="444" y="338"/>
			<point x="441" y="313"/>
			<point x="436" y="290" type="curve" smooth="yes"/>
			<point x="374" y="0" type="line"/>
			<point x="451" y="0" type="line"/>
			<point x="513" y="290" type="line" smooth="yes"/>
			<point x="520" y="323"/>
			<point x="522" y="344"/>
			<point x="522" y="361" type="curve" smooth="yes"/>
			<point x="522" y="453"/>
			<point x="463" y="508"/>
			<point x="374" y="508" type="curve" smooth="yes"/>
			<point x="270" y="508"/>
			<point x="179" y="417"/>
			<point x="146" y="271" type="curve"/>
			<point x="182" y="341" type="line"/>
			<point x="263" y="720" type="line"/>
			<point x="186" y="720" type="line"/>
		</contour>
	</outline>
	<anchor name="bottom.LC" x="236" y="-50"/>
	<guideline x="33" y="0" angle="102"/>
	<guideline x="110" y="0" angle="102"/>
	<guideline x="374" y="0" angle="102"/>
	<guideline x="451" y="0" angle="102"/>
</glyph>
<glyph name="j" format="2">
	<unicode hex="006A"/>
	<advance width="239"/>
	<outline>
		<contour>
			<point x="-89" y="-194" type="line"/>
			<point x="-47" y="-194" type="line" smooth="yes"/>
			<point x="36" y="-194"/>
			<point x="77" y="-160"/>
			<point x="95" y="-73" type="curve" smooth="yes"/>
			<point x="214" y="492" type="line"/>
			<point x="137" y="492" type="line"/>
			<point x="19" y="-67" type="line" smooth="yes"/>
			<point x="10" y="-108"/>
			<point x="-8" y="-130"/>
			<point x="-49" y="-130" type="curve" smooth="yes"/>
			<point x="-76" y="-130" type="line"/>
		</contour>
		<contour>
			<point x="157" y="668" type="curve" smooth="yes"/>
			<point x="157" y="641"/>
			<point x="175" y="623"/>
			<point x="204" y="623" type="curve" smooth="yes"/>
			<point x="241" y="623"/>
			<point x="269" y="652"/>
			<point x="269" y="688" type="curve" smooth="yes"/>
			<point x="269" y="715"/>
			<point x="251" y="733"/>
			<point x="222" y="733" type="curve" smooth="yes"/>
			<point x="185" y="733"/>
			<point x="157" y="704"/>
		</contour>
	</outline>
</glyph>
<glyph name="k" format="2">
	<unicode hex="006B"/>
	<advance width="525"/>
	<outline>
		<contour>
			<point x="33" y="0" type="line"/>
			<point x="110" y="0" type="line"/>
			<point x="263" y="720" type="line"/>
			<point x="186" y="720" type="line"/>
		</contour>
		<contour>
			<point x="360" y="0" type="line"/>
			<point x="465" y="0" type="line"/>
			<point x="233" y="264" type="line"/>
			<point x="231" y="243" type="line"/>
			<point x="546" y="492" type="line"/>
			<point x="440" y="492" type="line"/>
			<point x="146" y="255" type="line"/>
			<point x="140" y="255" type="line"/>
		</contour>
	</outline>
	<anchor name="bottom.LC" x="226" y="-50"/>
	<guideline x="33" y="0" angle="102"/>
	<guideline x="110" y="0" angle="102"/>
</glyph>
<glyph name="l" format="2">
	<unicode hex="006C"/>
	<advance width="279"/>
	<outline>
		<contour>
			<point x="62" y="138" type="line" smooth="yes"/>
			<point x="58" y="120"/>
			<point x="57" y="105"/>
			<point x="57" y="91" type="curve" smooth="yes"/>
			<point x="57" y="30"/>
			<point x="94" y="0"/>
			<point x="163" y="0" type="curve" smooth="yes"/>
			<point x="212" y="0" type="line"/>
			<point x="226" y="67" type="line"/>
			<point x="172" y="67" type="line" smooth="yes"/>
			<point x="145" y="67"/>
			<point x="135" y="79"/>
			<point x="135" y="102" type="curve" smooth="yes"/>
			<point x="135" y="115"/>
			<point x="136" y="122"/>
			<point x="140" y="143" type="curve" smooth="yes"/>
			<point x="263" y="720" type="line"/>
			<point x="186" y="720" type="line"/>
		</contour>
	</outline>
	<anchor name="bottom.LC" x="140" y="-50"/>
	<anchor name="top.LC" x="232" y="766"/>
	<anchor name="top_right" x="341" y="540"/>
	<guideline x="33" y="0" angle="102"/>
</glyph>
<glyph name="m" format="2">
	<unicode hex="006D"/>
	<advance width="879"/>
	<outline>
		<contour>
			<point x="33" y="0" type="line"/>
			<point x="110" y="0" type="line"/>
			<point x="138" y="131" type="line" smooth="yes"/>
			<point x="183" y="339"/>
			<point x="246" y="440"/>
			<point x="346" y="440" type="curve" smooth="yes"/>
			<point x="394" y="440"/>
			<point x="423" y="407"/>
			<point x="423" y="354" type="curve" smooth="yes"/>
			<point x="423" y="338"/>
			<point x="420" y="313"/>
			<point x="415" y="290" type="curve" smooth="yes"/>
			<point x="354" y="0" type="line"/>
			<point x="431" y="0" type="line"/>
			<point x="459" y="131" type="line" smooth="yes"/>
			<point x="504" y="339"/>
			<point x="567" y="440"/>
			<point x="667" y="440" type="curve" smooth="yes"/>
			<point x="715" y="440"/>
			<point x="744" y="407"/>
			<point x="744" y="354" type="curve" smooth="yes"/>
			<point x="744" y="338"/>
			<point x="741" y="313"/>
			<point x="736" y="290" type="curve" smooth="yes"/>
			<point x="675" y="0" type="line"/>
			<point x="752" y="0" type="line"/>
			<point x="813" y="290" type="line" smooth="yes"/>
			<point x="820" y="323"/>
			<point x="822" y="344"/>
			<point x="822" y="361" type="curve" smooth="yes"/>
			<point x="822" y="453"/>
			<point x="767" y="508"/>
			<point x="685" y="508" type="curve" smooth="yes"/>
			<point x="601" y="508"/>
			<point x="526" y="450"/>
			<point x="481" y="353" type="curve"/>
			<point x="492" y="350" type="line"/>
			<point x="496" y="448"/>
			<point x="445" y="508"/>
			<point x="364" y="508" type="curve" smooth="yes"/>
			<point x="289" y="508"/>
			<point x="222" y="456"/>
			<point x="180" y="370" type="curve"/>
			<point x="187" y="368" type="line"/>
			<point x="213" y="492" type="line"/>
			<point x="137" y="492" type="line"/>
		</contour>
	</outline>
</glyph>
<glyph name="n" format="2">
	<unicode hex="006E"/>
	<advance width="579"/>
	<outline>
		<contour>
			<point x="33" y="0" type="line"/>
			<point x="110" y="0" type="line"/>
			<point x="138" y="131" type="line" smooth="yes"/>
			<point x="183" y="340"/>
			<point x="251" y="440"/>
			<point x="356" y="440" type="curve" smooth="yes"/>
			<point x="410" y="440"/>
			<point x="443" y="407"/>
			<point x="443" y="354" type="curve" smooth="yes"/>
			<point x="443" y="338"/>
			<point x="440" y="313"/>
			<point x="435" y="290" type="curve" smooth="yes"/>
			<point x="374" y="0" type="line"/>
			<point x="451" y="0" type="line"/>
			<point x="512" y="290" type="line" smooth="yes"/>
			<point x="519" y="323"/>
			<point x="521" y="344"/>
			<point x="521" y="361" type="curve" smooth="yes"/>
			<point x="521" y="453"/>
			<point x="462" y="508"/>
			<point x="374" y="508" type="curve" smooth="yes"/>
			<point x="270" y="508"/>
			<point x="179" y="417"/>
			<point x="146" y="271" type="curve"/>
			<point x="181" y="341" type="line"/>
			<point x="213" y="492" type="line"/>
			<point x="137" y="492" type="line"/>
		</contour>
	</outline>
	<anchor name="top.LC" x="376" y="544"/>
	<anchor name="bottom.LC" x="250" y="-50"/>
</glyph>
<glyph name="o" format="2">
	<unicode hex="006F"/>
	<advance width="591"/>
	<outline>
		<contour>
			<point x="47" y="196" type="curve" smooth="yes"/>
			<point x="47" y="69"/>
			<point x="134" y="-16"/>
			<point x="265" y="-16" type="curve" smooth="yes"/>
			<point x="419" y="-16"/>
			<point x="544" y="123"/>
			<point x="544" y="296" type="curve" smooth="yes"/>
			<point x="544" y="423"/>
			<point x="457" y="508"/>
			<point x="326" y="508" type="curve" smooth="yes"/>
			<point x="172" y="508"/>
			<point x="47" y="369"/>
		</contour>
		<contour>
			<point x="265" y="51" type="curve" smooth="yes"/>
			<point x="182" y="51"/>
			<point x="128" y="109"/>
			<point x="128" y="196" type="curve" smooth="yes"/>
			<point x="128" y="333"/>
			<point x="215" y="441"/>
			<point x="326" y="441" type="curve" smooth="yes"/>
			<point x="409" y="441"/>
			<point x="463" y="383"/>
			<point x="463" y="296" type="curve" smooth="yes"/>
			<point x="463" y="159"/>
			<point x="376" y="51"/>
		</contour>
	</outline>
	<anchor name="top.LC" x="350" y="544"/>
</glyph>
<glyph name="q" format="2">
	<unicode hex="0071"/>
	<advance width="615"/>
	<outline>
		<contour>
			<point x="360" y="-194" type="line"/>
			<point x="437" y="-194" type="line"/>
			<point x="582" y="492" type="line"/>
			<point x="506" y="492" type="line"/>
			<point x="472" y="331" type="line"/>
			<point x="492" y="348" type="line"/>
			<point x="481" y="449"/>
			<point x="420" y="508"/>
			<point x="325" y="508" type="curve" smooth="yes"/>
			<point x="170" y="508"/>
			<point x="47" y="366"/>
			<point x="47" y="200" type="curve" smooth="yes"/>
			<point x="47" y="59"/>
			<point x="123" y="-16"/>
			<point x="237" y="-16" type="curve" smooth="yes"/>
			<point x="360" y="-16"/>
			<point x="435" y="82"/>
			<point x="480" y="245" type="curve"/>
			<point x="459" y="283" type="line"/>
			<point x="418" y="141"/>
			<point x="347" y="51"/>
			<point x="248" y="51" type="curve" smooth="yes"/>
			<point x="174" y="51"/>
			<point x="128" y="106"/>
			<point x="128" y="200" type="curve" smooth="yes"/>
			<point x="128" y="335"/>
			<point x="219" y="441"/>
			<point x="324" y="441" type="curve" smooth="yes"/>
			<point x="403" y="441"/>
			<point x="452" y="384"/>
			<point x="452" y="286" type="curve" smooth="yes"/>
			<point x="452" y="252"/>
			<point x="449" y="224"/>
			<point x="442" y="190" type="curve" smooth="yes"/>
		</contour>
	</outline>
	<guideline y="51"/>
	<guideline y="441"/>
	<guideline x="401" y="0" angle="102"/>
	<guideline x="478" y="0" angle="102"/>
</glyph>
<glyph name="r" format="2">
	<unicode hex="0072"/>
	<advance width="367"/>
	<outline>
		<contour>
			<point x="33" y="0" type="line"/>
			<point x="110" y="0" type="line"/>
			<point x="154" y="206" type="line" smooth="yes"/>
			<point x="186" y="356"/>
			<point x="266" y="425"/>
			<point x="364" y="425" type="curve" smooth="yes"/>
			<point x="381" y="425" type="line"/>
			<point x="397" y="500" type="line"/>
			<point x="382" y="500" type="line" smooth="yes"/>
			<point x="287" y="500"/>
			<point x="204" y="438"/>
			<point x="168" y="335" type="curve"/>
			<point x="180" y="335" type="line"/>
			<point x="213" y="492" type="line"/>
			<point x="137" y="492" type="line"/>
		</contour>
	</outline>
	<anchor name="top.LC" x="289" y="544"/>
</glyph>
<glyph name="t" format="2">
	<unicode hex="0074"/>
	<advance width="364"/>
	<outline>
		<contour>
			<point x="101" y="153" type="line" smooth="yes"/>
			<point x="96" y="130"/>
			<point x="93" y="110"/>
			<point x="93" y="94" type="curve" smooth="yes"/>
			<point x="93" y="32"/>
			<point x="126" y="0"/>
			<point x="199" y="0" type="curve" smooth="yes"/>
			<point x="280" y="0" type="line"/>
			<point x="294" y="67" type="line"/>
			<point x="213" y="67" type="line" smooth="yes"/>
			<point x="181" y="67"/>
			<point x="171" y="77"/>
			<point x="171" y="105" type="curve" smooth="yes"/>
			<point x="171" y="114"/>
			<point x="173" y="126"/>
			<point x="176" y="142" type="curve" smooth="yes"/>
			<point x="281" y="636" type="line"/>
			<point x="204" y="636" type="line"/>
		</contour>
		<contour>
			<point x="70" y="426" type="line"/>
			<point x="355" y="426" type="line"/>
			<point x="369" y="492" type="line"/>
			<point x="84" y="492" type="line"/>
		</contour>
	</outline>
	<anchor name="bottom.LC" x="185" y="-50"/>
	<anchor name="top_right.LC.short" x="373" y="540"/>
</glyph>
<glyph name="u" format="2">
	<unicode hex="0075"/>
	<advance width="579"/>
	<outline>
		<contour>
			<point x="435" y="0" type="line"/>
			<point x="539" y="492" type="line"/>
			<point x="462" y="492" type="line"/>
			<point x="434" y="361" type="line" smooth="yes"/>
			<point x="389" y="151"/>
			<point x="321" y="51"/>
			<point x="216" y="51" type="curve" smooth="yes"/>
			<point x="165" y="51"/>
			<point x="136" y="84"/>
			<point x="136" y="138" type="curve" smooth="yes"/>
			<point x="136" y="154"/>
			<point x="139" y="179"/>
			<point x="144" y="202" type="curve" smooth="yes"/>
			<point x="205" y="492" type="line"/>
			<point x="128" y="492" type="line"/>
			<point x="67" y="202" type="line" smooth="yes"/>
			<point x="60" y="169"/>
			<point x="58" y="148"/>
			<point x="58" y="131" type="curve" smooth="yes"/>
			<point x="58" y="36"/>
			<point x="110" y="-16"/>
			<point x="198" y="-16" type="curve" smooth="yes"/>
			<point x="302" y="-16"/>
			<point x="393" y="75"/>
			<point x="426" y="221" type="curve"/>
			<point x="391" y="151" type="line"/>
			<point x="359" y="0" type="line"/>
		</contour>
	</outline>
	<anchor name="top.LC" x="338" y="544"/>
	<anchor name="ogonek.LC" x="345" y="-30"/>
	<guideline y="51"/>
</glyph>
<glyph name="w" format="2">
	<unicode hex="0077"/>
	<advance width="748"/>
	<outline>
		<contour>
			<point x="128" y="0" type="line"/>
			<point x="213" y="0" type="line"/>
			<point x="422" y="427" type="line"/>
			<point x="402" y="427" type="line"/>
			<point x="430" y="0" type="line"/>
			<point x="515" y="0" type="line"/>
			<point x="763" y="492" type="line"/>
			<point x="686" y="492" type="line"/>
			<point x="464" y="31" type="line"/>
			<point x="490" y="31" type="line"/>
			<point x="462" y="492" type="line"/>
			<point x="388" y="492" type="line"/>
			<point x="163" y="31" type="line"/>
			<point x="193" y="31" type="line"/>
			<point x="168" y="492" type="line"/>
			<point x="91" y="492" type="line"/>
		</contour>
	</outline>
	<anchor name="top.LC" x="423" y="544"/>
</glyph>
<glyph name="x" format="2">
	<unicode hex="0078"/>
	<advance width="477"/>
	<outline>
		<contour>
			<point x="-43" y="0" type="line"/>
			<point x="51" y="0" type="line"/>
			<point x="255" y="230" type="line"/>
			<point x="218" y="230" type="line"/>
			<point x="327" y="0" type="line"/>
			<point x="415" y="0" type="line"/>
			<point x="269" y="283" type="line"/>
			<point x="269" y="232" type="line"/>
			<point x="503" y="492" type="line"/>
			<point x="409" y="492" type="line"/>
			<point x="235" y="292" type="line"/>
			<point x="257" y="292" type="line"/>
			<point x="167" y="492" type="line"/>
			<point x="80" y="492" type="line"/>
			<point x="203" y="244" type="line"/>
			<point x="212" y="281" type="line"/>
		</contour>
	</outline>
</glyph>
<glyph name="z" format="2">
	<unicode hex="007A"/>
	<advance width="470"/>
	<outline>
		<contour>
			<point x="0" y="0" type="line"/>
			<point x="377" y="0" type="line"/>
			<point x="390" y="64" type="line"/>
			<point x="106" y="64" type="line"/>
			<point x="456" y="427" type="line"/>
			<point x="470" y="492" type="line"/>
			<point x="100" y="492" type="line"/>
			<point x="86" y="427" type="line"/>
			<point x="362" y="427" type="line"/>
			<point x="13" y="64" type="line"/>
		</contour>
	</outline>
	<anchor name="top.LC" x="298" y="544"/>
</glyph>
<glyph name="braceleft" format="2">
	<unicode hex="007B"/>
	<advance width="388"/>
	<outline>
		<contour>
			<point x="91" y="-9" type="line" smooth="yes"/>
			<point x="88" y="-24"/>
			<point x="86" y="-37"/>
			<point x="86" y="-49" type="curve" smooth="yes"/>
			<point x="86" y="-103"/>
			<point x="117" y="-129"/>
			<point x="180" y="-129" type="curve" smooth="yes"/>
			<point x="256" y="-129" type="line"/>
			<point x="270" y="-65" type="line"/>
			<point x="213" y="-65" type="line" smooth="yes"/>
			<point x="182" y="-65"/>
			<point x="167" y="-53"/>
			<point x="167" y="-28" type="curve" smooth="yes"/>
			<point x="167" y="-22"/>
			<point x="168" y="-11"/>
			<point x="171" y="1" type="curve" smooth="yes"/>
			<point x="209" y="180" type="line" smooth="yes"/>
			<point x="214" y="204"/>
			<point x="217" y="223"/>
			<point x="217" y="234" type="curve" smooth="yes"/>
			<point x="217" y="288"/>
			<point x="186" y="314"/>
			<point x="122" y="314" type="curve"/>
			<point x="118" y="292" type="line"/>
			<point x="196" y="292"/>
			<point x="241" y="331"/>
			<point x="258" y="412" type="curve" smooth="yes"/>
			<point x="299" y="606" type="line" smooth="yes"/>
			<point x="308" y="648"/>
			<point x="329" y="667"/>
			<point x="369" y="667" type="curve" smooth="yes"/>
			<point x="425" y="667" type="line"/>
			<point x="439" y="731" type="line"/>
			<point x="363" y="731" type="line" smooth="yes"/>
			<point x="286" y="731"/>
			<point x="240" y="692"/>
			<point x="223" y="611" type="curve" smooth="yes"/>
			<point x="178" y="396" type="line" smooth="yes"/>
			<point x="169" y="354"/>
			<point x="148" y="335"/>
			<point x="108" y="335" type="curve" smooth="yes"/>
			<point x="72" y="335" type="line"/>
			<point x="58" y="271" type="line"/>
			<point x="94" y="271" type="line" smooth="yes"/>
			<point x="126" y="271"/>
			<point x="141" y="258"/>
			<point x="141" y="232" type="curve" smooth="yes"/>
			<point x="141" y="228"/>
			<point x="139" y="218"/>
			<point x="137" y="209" type="curve" smooth="yes"/>
		</contour>
	</outline>
</glyph>
<glyph name="braceright" format="2">
	<unicode hex="007D"/>
	<advance width="388"/>
	<outline>
		<contour>
			<point x="-27" y="-129" type="line"/>
			<point x="49" y="-129" type="line" smooth="yes"/>
			<point x="126" y="-129"/>
			<point x="172" y="-90"/>
			<point x="189" y="-9" type="curve" smooth="yes"/>
			<point x="235" y="210" type="line" smooth="yes"/>
			<point x="244" y="252"/>
			<point x="265" y="271"/>
			<point x="305" y="271" type="curve" smooth="yes"/>
			<point x="341" y="271" type="line"/>
			<point x="355" y="335" type="line"/>
			<point x="319" y="335" type="line" smooth="yes"/>
			<point x="287" y="335"/>
			<point x="272" y="348"/>
			<point x="272" y="374" type="curve" smooth="yes"/>
			<point x="272" y="377"/>
			<point x="272" y="380"/>
			<point x="276" y="397" type="curve" smooth="yes"/>
			<point x="321" y="611" type="line" smooth="yes"/>
			<point x="324" y="626"/>
			<point x="326" y="639"/>
			<point x="326" y="651" type="curve" smooth="yes"/>
			<point x="326" y="705"/>
			<point x="295" y="731"/>
			<point x="232" y="731" type="curve" smooth="yes"/>
			<point x="156" y="731" type="line"/>
			<point x="142" y="667" type="line"/>
			<point x="199" y="667" type="line" smooth="yes"/>
			<point x="230" y="667"/>
			<point x="245" y="655"/>
			<point x="245" y="630" type="curve" smooth="yes"/>
			<point x="245" y="624"/>
			<point x="244" y="613"/>
			<point x="241" y="601" type="curve" smooth="yes"/>
			<point x="204" y="426" type="line" smooth="yes"/>
			<point x="199" y="402"/>
			<point x="196" y="383"/>
			<point x="196" y="372" type="curve" smooth="yes"/>
			<point x="196" y="318"/>
			<point x="227" y="292"/>
			<point x="291" y="292" type="curve"/>
			<point x="295" y="314" type="line"/>
			<point x="217" y="314"/>
			<point x="172" y="275"/>
			<point x="155" y="194" type="curve" smooth="yes"/>
			<point x="113" y="-4" type="line" smooth="yes"/>
			<point x="104" y="-46"/>
			<point x="83" y="-65"/>
			<point x="43" y="-65" type="curve" smooth="yes"/>
			<point x="-13" y="-65" type="line"/>
		</contour>
	</outline>
</glyph>
<glyph name="exclamdown" format="2">
	<unicode hex="00A1"/>
	<advance width="222"/>
	<outline>
		<contour>
			<point x="100" y="276" type="line"/>
			<point x="85" y="220"/>
			<point x="13" y="-56"/>
			<point x="-13" y="-163" type="curve" smooth="yes"/>
			<point x="-20" y="-191"/>
			<point x="-23" y="-204"/>
			<point x="-23" y="-211" type="curve" smooth="yes"/>
			<point x="-23" y="-236"/>
			<point x="-8" y="-251"/>
			<point x="16" y="-251" type="curve" smooth="yes"/>
			<point x="28" y="-251"/>
			<point x="39" y="-248"/>
			<point x="47" y="-242" type="curve" smooth="yes"/>
			<point x="59" y="-233"/>
			<point x="67" y="-218"/>
			<point x="71" y="-196" type="curve" smooth="yes"/>
			<point x="77" y="-167"/>
			<point x="144" y="225"/>
			<point x="152" y="276" type="curve"/>
		</contour>
		<contour>
			<point x="99" y="423" type="curve" smooth="yes"/>
			<point x="99" y="394"/>
			<point x="120" y="374"/>
			<point x="149" y="374" type="curve" smooth="yes"/>
			<point x="188" y="374"/>
			<point x="216" y="402"/>
			<point x="216" y="443" type="curve" smooth="yes"/>
			<point x="216" y="472"/>
			<point x="195" y="492"/>
			<point x="166" y="492" type="curve" smooth="yes"/>
			<point x="127" y="492"/>
			<point x="99" y="464"/>
		</contour>
	</outline>
</glyph>
<glyph name="sterling" format="2">
	<unicode hex="00A3"/>
	<advance width="631"/>
	<outline>
		<contour>
			<point x="15" y="0" type="line"/>
			<point x="528" y="0" type="line"/>
			<point x="542" y="66" type="line"/>
			<point x="28" y="66" type="line"/>
		</contour>
		<contour>
			<point x="91" y="319" type="line"/>
			<point x="492" y="319" type="line"/>
			<point x="506" y="385" type="line"/>
			<point x="105" y="385" type="line"/>
		</contour>
		<contour>
			<point x="130" y="33" type="line"/>
			<point x="207" y="33" type="line"/>
			<point x="305" y="493" type="line" smooth="yes"/>
			<point x="330" y="608"/>
			<point x="384" y="664"/>
			<point x="472" y="664" type="curve" smooth="yes"/>
			<point x="535" y="664"/>
			<point x="573" y="637"/>
			<point x="601" y="569" type="curve"/>
			<point x="662" y="611" type="line"/>
			<point x="629" y="691"/>
			<point x="567" y="731"/>
			<point x="476" y="731" type="curve" smooth="yes"/>
			<point x="348" y="731"/>
			<point x="260" y="646"/>
			<point x="227" y="491" type="curve" smooth="yes"/>
		</contour>
	</outline>
	<guideline y="664"/>
	<guideline y="731"/>
</glyph>
<glyph name="currency" format="2">
	<unicode hex="00A4"/>
	<advance width="633"/>
	<outline>
		<contour>
			<point x="311" y="220" type="curve" smooth="yes"/>
			<point x="240" y="220"/>
			<point x="192" y="267"/>
			<point x="192" y="338" type="curve" smooth="yes"/>
			<point x="192" y="441"/>
			<point x="279" y="532"/>
			<point x="378" y="532" type="curve" smooth="yes"/>
			<point x="449" y="532"/>
			<point x="497" y="485"/>
			<point x="497" y="414" type="curve" smooth="yes"/>
			<point x="497" y="311"/>
			<point x="410" y="220"/>
		</contour>
		<contour>
			<point x="90" y="128" type="line"/>
			<point x="180" y="202" type="line"/>
			<point x="210" y="175"/>
			<point x="250" y="161"/>
			<point x="299" y="161" type="curve" smooth="yes"/>
			<point x="347" y="161"/>
			<point x="397" y="177"/>
			<point x="440" y="205" type="curve"/>
			<point x="498" y="132" type="line"/>
			<point x="545" y="170" type="line"/>
			<point x="487" y="244" type="line"/>
			<point x="536" y="297"/>
			<point x="563" y="361"/>
			<point x="563" y="423" type="curve" smooth="yes"/>
			<point x="563" y="454"/>
			<point x="557" y="479"/>
			<point x="545" y="503" type="curve"/>
			<point x="636" y="578" type="line"/>
			<point x="599" y="624" type="line"/>
			<point x="509" y="550" type="line"/>
			<point x="479" y="577"/>
			<point x="439" y="591"/>
			<point x="390" y="591" type="curve" smooth="yes"/>
			<point x="342" y="591"/>
			<point x="292" y="575"/>
			<point x="249" y="547" type="curve"/>
			<point x="191" y="620" type="line"/>
			<point x="144" y="582" type="line"/>
			<point x="202" y="508" type="line"/>
			<point x="153" y="455"/>
			<point x="126" y="391"/>
			<point x="126" y="329" type="curve" smooth="yes"/>
			<point x="126" y="298"/>
			<point x="132" y="273"/>
			<point x="144" y="249" type="curve"/>
			<point x="53" y="174" type="line"/>
		</contour>
	</outline>
	<guideline y="161"/>
	<guideline y="532"/>
	<guideline y="591"/>
</glyph>
<glyph name="brokenbar" format="2">
	<unicode hex="00A6"/>
	<advance width="246"/>
	<outline>
		<contour>
			<point x="116" y="390" type="line"/>
			<point x="190" y="390" type="line"/>
			<point x="264" y="736" type="line"/>
			<point x="189" y="736" type="line"/>
		</contour>
		<contour>
			<point x="7" y="-129" type="line"/>
			<point x="81" y="-129" type="line"/>
			<point x="155" y="217" type="line"/>
			<point x="80" y="217" type="line"/>
		</contour>
	</outline>
</glyph>
<glyph name="copyright" format="2">
	<unicode hex="00A9"/>
	<advance width="832"/>
	<outline>
		<contour>
			<point x="549" y="265" type="line"/>
			<point x="524" y="225"/>
			<point x="487" y="201"/>
			<point x="440" y="201" type="curve" smooth="yes"/>
			<point x="365" y="201"/>
			<point x="309" y="268"/>
			<point x="309" y="358" type="curve" smooth="yes"/>
			<point x="309" y="450"/>
			<point x="365" y="516"/>
			<point x="440" y="516" type="curve" smooth="yes"/>
			<point x="487" y="516"/>
			<point x="524" y="492"/>
			<point x="549" y="453" type="curve"/>
			<point x="591" y="495" type="line"/>
			<point x="558" y="542"/>
			<point x="505" y="572"/>
			<point x="439" y="572" type="curve" smooth="yes"/>
			<point x="326" y="572"/>
			<point x="242" y="482"/>
			<point x="242" y="358" type="curve" smooth="yes"/>
			<point x="242" y="236"/>
			<point x="324" y="145"/>
			<point x="437" y="145" type="curve" smooth="yes"/>
			<point x="503" y="145"/>
			<point x="558" y="175"/>
			<point x="591" y="222" type="curve"/>
		</contour>
		<contour>
			<point x="436" y="-26" type="curve" smooth="yes"/>
			<point x="644" y="-26"/>
			<point x="809" y="145"/>
			<point x="809" y="358" type="curve" smooth="yes"/>
			<point x="809" y="571"/>
			<point x="644" y="742"/>
			<point x="436" y="742" type="curve" smooth="yes"/>
			<point x="228" y="742"/>
			<point x="63" y="571"/>
			<point x="63" y="358" type="curve" smooth="yes"/>
			<point x="63" y="145"/>
			<point x="228" y="-26"/>
		</contour>
		<contour>
			<point x="436" y="37" type="curve" smooth="yes"/>
			<point x="266" y="37"/>
			<point x="127" y="179"/>
			<point x="127" y="358" type="curve" smooth="yes"/>
			<point x="127" y="537"/>
			<point x="266" y="679"/>
			<point x="436" y="679" type="curve" smooth="yes"/>
			<point x="606" y="679"/>
			<point x="745" y="537"/>
			<point x="745" y="358" type="curve" smooth="yes"/>
			<point x="745" y="179"/>
			<point x="606" y="37"/>
		</contour>
	</outline>
</glyph>
<glyph name="micro" format="2">
	<unicode hex="00B5"/>
	<advance width="632"/>
	<outline>
		<contour>
			<point x="17" y="-194" type="line"/>
			<point x="94" y="-194" type="line"/>
			<point x="155" y="97" type="line"/>
			<point x="110" y="85" type="line"/>
			<point x="121" y="19"/>
			<point x="167" y="-16"/>
			<point x="238" y="-16" type="curve" smooth="yes"/>
			<point x="340" y="-16"/>
			<point x="429" y="75"/>
			<point x="461" y="221" type="curve"/>
			<point x="426" y="151" type="line"/>
			<point x="394" y="0" type="line"/>
			<point x="470" y="0" type="line"/>
			<point x="574" y="492" type="line"/>
			<point x="497" y="492" type="line"/>
			<point x="469" y="361" type="line" smooth="yes"/>
			<point x="424" y="151"/>
			<point x="356" y="51"/>
			<point x="251" y="51" type="curve" smooth="yes"/>
			<point x="200" y="51"/>
			<point x="171" y="84"/>
			<point x="171" y="138" type="curve" smooth="yes"/>
			<point x="171" y="154"/>
			<point x="174" y="179"/>
			<point x="179" y="202" type="curve" smooth="yes"/>
			<point x="240" y="492" type="line"/>
			<point x="163" y="492" type="line"/>
		</contour>
	</outline>
</glyph>
<glyph name="paragraph" format="2">
	<unicode hex="00B6"/>
	<advance width="573"/>
	<outline>
		<contour>
			<point x="163" y="-130" type="line"/>
			<point x="235" y="-130" type="line"/>
			<point x="400" y="649" type="line"/>
			<point x="506" y="649" type="line"/>
			<point x="341" y="-130" type="line"/>
			<point x="413" y="-130" type="line"/>
			<point x="592" y="715" type="line"/>
			<point x="373" y="715" type="line" smooth="yes"/>
			<point x="214" y="715"/>
			<point x="90" y="604"/>
			<point x="90" y="459" type="curve" smooth="yes"/>
			<point x="90" y="368"/>
			<point x="152" y="306"/>
			<point x="254" y="300" type="curve"/>
		</contour>
	</outline>
</glyph>
<glyph name="questiondown" format="2">
	<unicode hex="00BF"/>
	<advance width="559"/>
	<outline>
		<contour>
			<point x="389" y="-64" type="line"/>
			<point x="330" y="-142"/>
			<point x="263" y="-184"/>
			<point x="196" y="-184" type="curve" smooth="yes"/>
			<point x="127" y="-184"/>
			<point x="83" y="-142"/>
			<point x="83" y="-78" type="curve" smooth="yes"/>
			<point x="83" y="-21"/>
			<point x="113" y="19"/>
			<point x="190" y="64" type="curve" smooth="yes"/>
			<point x="295" y="127"/>
			<point x="325" y="170"/>
			<point x="340" y="276" type="curve"/>
			<point x="282" y="276" type="line"/>
			<point x="265" y="199"/>
			<point x="236" y="159"/>
			<point x="164" y="118" type="curve" smooth="yes"/>
			<point x="53" y="54"/>
			<point x="4" y="-9"/>
			<point x="4" y="-86" type="curve" smooth="yes"/>
			<point x="4" y="-180"/>
			<point x="84" y="-251"/>
			<point x="189" y="-251" type="curve" smooth="yes"/>
			<point x="285" y="-251"/>
			<point x="363" y="-209"/>
			<point x="438" y="-116" type="curve"/>
		</contour>
		<contour>
			<point x="277" y="423" type="curve" smooth="yes"/>
			<point x="277" y="394"/>
			<point x="298" y="374"/>
			<point x="327" y="374" type="curve" smooth="yes"/>
			<point x="366" y="374"/>
			<point x="394" y="402"/>
			<point x="394" y="443" type="curve" smooth="yes"/>
			<point x="394" y="472"/>
			<point x="373" y="492"/>
			<point x="344" y="492" type="curve" smooth="yes"/>
			<point x="305" y="492"/>
			<point x="277" y="464"/>
		</contour>
	</outline>
</glyph>
<glyph name="AE" format="2">
	<unicode hex="00C6"/>
	<advance width="985"/>
	<outline>
		<contour>
			<point x="-24" y="0" type="line"/>
			<point x="64" y="0" type="line"/>
			<point x="642" y="715" type="line"/>
			<point x="558" y="715" type="line"/>
		</contour>
		<contour>
			<point x="193" y="200" type="line"/>
			<point x="514" y="200" type="line"/>
			<point x="528" y="268" type="line"/>
			<point x="207" y="268" type="line"/>
		</contour>
		<contour>
			<point x="444" y="0" type="line"/>
			<point x="896" y="0" type="line"/>
			<point x="911" y="70" type="line"/>
			<point x="539" y="70" type="line"/>
			<point x="660" y="645" type="line"/>
			<point x="1019" y="645" type="line"/>
			<point x="1034" y="715" type="line"/>
			<point x="595" y="715" type="line"/>
		</contour>
		<contour>
			<point x="584" y="331" type="line"/>
			<point x="934" y="331" type="line"/>
			<point x="949" y="401" type="line"/>
			<point x="599" y="401" type="line"/>
		</contour>
	</outline>
</glyph>
<glyph name="Eth" format="2">
	<unicode hex="00D0"/>
	<advance width="751"/>
	<outline>
		<contour>
			<point x="58" y="332" type="line"/>
			<point x="387" y="332" type="line"/>
			<point x="401" y="400" type="line"/>
			<point x="73" y="400" type="line"/>
		</contour>
		<contour>
			<point x="54" y="0" type="line"/>
			<point x="284" y="0" type="line" smooth="yes"/>
			<point x="539" y="0"/>
			<point x="720" y="180"/>
			<point x="720" y="435" type="curve" smooth="yes"/>
			<point x="720" y="605"/>
			<point x="606" y="715"/>
			<point x="430" y="715" type="curve" smooth="yes"/>
			<point x="205" y="715" type="line"/>
		</contour>
		<contour>
			<point x="149" y="71" type="line"/>
			<point x="270" y="644" type="line"/>
			<point x="420" y="644" type="line" smooth="yes"/>
			<point x="554" y="644"/>
			<point x="636" y="561"/>
			<point x="636" y="426" type="curve" smooth="yes"/>
			<point x="636" y="217"/>
			<point x="495" y="71"/>
			<point x="293" y="71" type="curve" smooth="yes"/>
		</contour>
	</outline>
</glyph>
<glyph name="Oslash" format="2">
	<unicode hex="00D8"/>
	<advance width="821"/>
	<outline>
		<contour>
			<point x="57" y="-22" type="line"/>
			<point x="854" y="685" type="line"/>
			<point x="812" y="737" type="line"/>
			<point x="15" y="30" type="line"/>
		</contour>
		<contour>
			<point x="379" y="-16" type="curve" smooth="yes"/>
			<point x="604" y="-16"/>
			<point x="787" y="183"/>
			<point x="787" y="420" type="curve" smooth="yes"/>
			<point x="787" y="610"/>
			<point x="664" y="731"/>
			<point x="487" y="731" type="curve" smooth="yes"/>
			<point x="260" y="731"/>
			<point x="79" y="532"/>
			<point x="79" y="295" type="curve" smooth="yes"/>
			<point x="79" y="105"/>
			<point x="201" y="-16"/>
		</contour>
		<contour>
			<point x="385" y="56" type="curve" smooth="yes"/>
			<point x="251" y="56"/>
			<point x="162" y="151"/>
			<point x="162" y="295" type="curve" smooth="yes"/>
			<point x="162" y="490"/>
			<point x="310" y="659"/>
			<point x="481" y="659" type="curve" smooth="yes"/>
			<point x="615" y="659"/>
			<point x="704" y="564"/>
			<point x="704" y="420" type="curve" smooth="yes"/>
			<point x="704" y="225"/>
			<point x="556" y="56"/>
		</contour>
	</outline>
	<guideline y="659"/>
	<guideline y="731"/>
</glyph>
<glyph name="Thorn" format="2">
	<unicode hex="00DE"/>
	<advance width="634"/>
	<outline>
		<contour>
			<point x="54" y="0" type="line"/>
			<point x="134" y="0" type="line"/>
			<point x="286" y="715" type="line"/>
			<point x="206" y="715" type="line"/>
		</contour>
		<contour>
			<point x="158" y="156" type="line"/>
			<point x="337" y="156" type="line" smooth="yes"/>
			<point x="498" y="156"/>
			<point x="604" y="248"/>
			<point x="604" y="387" type="curve" smooth="yes"/>
			<point x="604" y="492"/>
			<point x="531" y="558"/>
			<point x="414" y="558" type="curve" smooth="yes"/>
			<point x="242" y="558" type="line"/>
			<point x="227" y="488" type="line"/>
			<point x="403" y="488" type="line" smooth="yes"/>
			<point x="479" y="488"/>
			<point x="522" y="451"/>
			<point x="522" y="384" type="curve" smooth="yes"/>
			<point x="522" y="287"/>
			<point x="455" y="226"/>
			<point x="349" y="226" type="curve" smooth="yes"/>
			<point x="172" y="226" type="line"/>
		</contour>
	</outline>
</glyph>
<glyph name="germandbls" format="2">
	<unicode hex="00DF"/>
	<advance width="606"/>
	<outline>
		<contour>
			<point x="24" y="0" type="line"/>
			<point x="102" y="0" type="line"/>
			<point x="198" y="453" type="line" smooth="yes"/>
			<point x="229" y="598"/>
			<point x="290" y="666"/>
			<point x="389" y="666" type="curve" smooth="yes"/>
			<point x="457" y="666"/>
			<point x="492" y="633"/>
			<point x="492" y="569" type="curve" smooth="yes"/>
			<point x="492" y="482"/>
			<point x="416" y="407"/>
			<point x="328" y="407" type="curve" smooth="yes"/>
			<point x="307" y="407" type="line"/>
			<point x="293" y="342" type="line"/>
			<point x="335" y="342" type="line" smooth="yes"/>
			<point x="414" y="342"/>
			<point x="469" y="290"/>
			<point x="469" y="217" type="curve" smooth="yes"/>
			<point x="469" y="119"/>
			<point x="406" y="47"/>
			<point x="321" y="47" type="curve" smooth="yes"/>
			<point x="280" y="47"/>
			<point x="244" y="64"/>
			<point x="220" y="95" type="curve"/>
			<point x="171" y="45" type="line"/>
			<point x="201" y="5"/>
			<point x="251" y="-16"/>
			<point x="316" y="-16" type="curve" smooth="yes"/>
			<point x="453" y="-16"/>
			<point x="550" y="82"/>
			<point x="550" y="220" type="curve" smooth="yes"/>
			<point x="550" y="325"/>
			<point x="472" y="396"/>
			<point x="356" y="396" type="curve" smooth="yes"/>
			<point x="323" y="396" type="line"/>
			<point x="315" y="361" type="line"/>
			<point x="318" y="361" type="line" smooth="yes"/>
			<point x="460" y="361"/>
			<point x="572" y="457"/>
			<point x="572" y="578" type="curve" smooth="yes"/>
			<point x="572" y="673"/>
			<point x="507" y="731"/>
			<point x="400" y="731" type="curve" smooth="yes"/>
			<point x="258" y="731"/>
			<point x="160" y="638"/>
			<point x="123" y="466" type="curve" smooth="yes"/>
		</contour>
	</outline>
	<guideline y="-16"/>
	<guideline y="666"/>
</glyph>
<glyph name="ae" format="2">
	<unicode hex="00E6"/>
	<advance width="900"/>
	<outline>
		<contour>
			<point x="135" y="365" type="line"/>
			<point x="180" y="416"/>
			<point x="238" y="443"/>
			<point x="301" y="443" type="curve" smooth="yes"/>
			<point x="385" y="443"/>
			<point x="419" y="394"/>
			<point x="401" y="301" type="curve" smooth="yes"/>
			<point x="394" y="268" type="line"/>
			<point x="461" y="266" type="line"/>
			<point x="466" y="290" type="line" smooth="yes"/>
			<point x="493" y="427"/>
			<point x="435" y="508"/>
			<point x="307" y="508" type="curve" smooth="yes"/>
			<point x="224" y="508"/>
			<point x="142" y="474"/>
			<point x="89" y="417" type="curve"/>
		</contour>
		<contour>
			<point x="263" y="288" type="line" smooth="yes"/>
			<point x="117" y="288"/>
			<point x="17" y="222"/>
			<point x="17" y="125" type="curve" smooth="yes"/>
			<point x="17" y="41"/>
			<point x="83" y="-16"/>
			<point x="181" y="-16" type="curve" smooth="yes"/>
			<point x="312" y="-16"/>
			<point x="414" y="85"/>
			<point x="442" y="242" type="curve"/>
			<point x="394" y="259" type="line"/>
			<point x="364" y="129"/>
			<point x="287" y="48"/>
			<point x="193" y="48" type="curve" smooth="yes"/>
			<point x="135" y="48"/>
			<point x="99" y="79"/>
			<point x="99" y="127" type="curve" smooth="yes"/>
			<point x="99" y="188"/>
			<point x="162" y="226"/>
			<point x="262" y="226" type="curve" smooth="yes"/>
			<point x="399" y="226" type="line"/>
			<point x="415" y="288" type="line"/>
		</contour>
		<contour>
			<point x="773" y="140" type="line"/>
			<point x="730" y="82"/>
			<point x="673" y="51"/>
			<point x="609" y="51" type="curve" smooth="yes"/>
			<point x="520" y="51"/>
			<point x="462" y="108"/>
			<point x="462" y="195" type="curve" smooth="yes"/>
			<point x="462" y="338"/>
			<point x="550" y="441"/>
			<point x="671" y="441" type="curve" smooth="yes"/>
			<point x="735" y="441"/>
			<point x="780" y="406"/>
			<point x="780" y="357" type="curve" smooth="yes"/>
			<point x="780" y="312"/>
			<point x="740" y="288"/>
			<point x="663" y="288" type="curve" smooth="yes"/>
			<point x="447" y="288" type="line"/>
			<point x="447" y="225" type="line"/>
			<point x="663" y="225" type="line" smooth="yes"/>
			<point x="785" y="225"/>
			<point x="856" y="274"/>
			<point x="856" y="358" type="curve" smooth="yes"/>
			<point x="856" y="447"/>
			<point x="780" y="508"/>
			<point x="670" y="508" type="curve" smooth="yes"/>
			<point x="518" y="508"/>
			<point x="394" y="367"/>
			<point x="394" y="196" type="curve" smooth="yes"/>
			<point x="394" y="64"/>
			<point x="474" y="-16"/>
			<point x="606" y="-16" type="curve" smooth="yes"/>
			<point x="693" y="-16"/>
			<point x="763" y="18"/>
			<point x="822" y="87" type="curve"/>
		</contour>
	</outline>
	<guideline y="-16"/>
	<guideline y="-16"/>
	<guideline y="441"/>
	<guideline y="443"/>
</glyph>
<glyph name="eth" format="2">
	<unicode hex="00F0"/>
	<advance width="597"/>
	<outline>
		<contour>
			<point x="486" y="232" type="line"/>
			<point x="492" y="261"/>
			<point x="495" y="288"/>
			<point x="495" y="313" type="curve" smooth="yes"/>
			<point x="495" y="426"/>
			<point x="427" y="488"/>
			<point x="318" y="488" type="curve" smooth="yes"/>
			<point x="167" y="488"/>
			<point x="46" y="351"/>
			<point x="46" y="181" type="curve" smooth="yes"/>
			<point x="46" y="63"/>
			<point x="125" y="-16"/>
			<point x="245" y="-16" type="curve" smooth="yes"/>
			<point x="423" y="-16"/>
			<point x="555" y="157"/>
			<point x="555" y="389" type="curve" smooth="yes"/>
			<point x="555" y="542"/>
			<point x="488" y="673"/>
			<point x="365" y="759" type="curve"/>
			<point x="302" y="732" type="line"/>
			<point x="426" y="633"/>
			<point x="483" y="520"/>
			<point x="483" y="376" type="curve" smooth="yes"/>
			<point x="483" y="328"/>
			<point x="478" y="280"/>
			<point x="467" y="233" type="curve"/>
		</contour>
		<contour>
			<point x="257" y="49" type="curve" smooth="yes"/>
			<point x="175" y="49"/>
			<point x="125" y="102"/>
			<point x="125" y="185" type="curve" smooth="yes"/>
			<point x="125" y="323"/>
			<point x="207" y="423"/>
			<point x="320" y="423" type="curve" smooth="yes"/>
			<point x="407" y="423"/>
			<point x="461" y="369"/>
			<point x="461" y="284" type="curve" smooth="yes"/>
			<point x="461" y="159"/>
			<point x="365" y="49"/>
		</contour>
		<contour>
			<point x="282" y="551" type="line"/>
			<point x="578" y="688" type="line"/>
			<point x="556" y="739" type="line"/>
			<point x="257" y="601" type="line"/>
		</contour>
	</outline>
</glyph>
<glyph name="divide" format="2">
	<unicode hex="00F7"/>
	<advance width="631"/>
	<outline>
		<contour>
			<point x="129" y="325" type="line"/>
			<point x="537" y="325" type="line"/>
			<point x="550" y="389" type="line"/>
			<point x="142" y="389" type="line"/>
		</contour>
		<contour>
			<point x="318" y="502" type="curve" smooth="yes"/>
			<point x="318" y="475"/>
			<point x="336" y="457"/>
			<point x="361" y="457" type="curve" smooth="yes"/>
			<point x="396" y="457"/>
			<point x="427" y="489"/>
			<point x="427" y="521" type="curve" smooth="yes"/>
			<point x="427" y="548"/>
			<point x="409" y="566"/>
			<point x="384" y="566" type="curve" smooth="yes"/>
			<point x="349" y="566"/>
			<point x="318" y="534"/>
		</contour>
		<contour>
			<point x="252" y="193" type="curve"/>
			<point x="252" y="166"/>
			<point x="270" y="148"/>
			<point x="295" y="148" type="curve" smooth="yes"/>
			<point x="330" y="148"/>
			<point x="361" y="180"/>
			<point x="361" y="212" type="curve" smooth="yes"/>
			<point x="361" y="239"/>
			<point x="343" y="257"/>
			<point x="318" y="257" type="curve" smooth="yes"/>
			<point x="283" y="257"/>
			<point x="252" y="225"/>
		</contour>
	</outline>
</glyph>
<glyph name="dcroat" format="2">
	<unicode hex="0111"/>
	<advance width="611"/>
	<outline>
		<contour>
			<point x="372" y="573" type="line"/>
			<point x="672" y="573" type="line"/>
			<point x="685" y="636" type="line"/>
			<point x="386" y="636" type="line"/>
		</contour>
		<contour>
			<point x="402" y="0" type="line"/>
			<point x="478" y="0" type="line"/>
			<point x="630" y="720" type="line"/>
			<point x="554" y="720" type="line"/>
			<point x="472" y="331" type="line"/>
			<point x="493" y="348" type="line"/>
			<point x="482" y="450"/>
			<point x="422" y="508"/>
			<point x="326" y="508" type="curve" smooth="yes"/>
			<point x="175" y="508"/>
			<point x="47" y="367"/>
			<point x="47" y="200" type="curve" smooth="yes"/>
			<point x="47" y="68"/>
			<point x="121" y="-16"/>
			<point x="237" y="-16" type="curve" smooth="yes"/>
			<point x="350" y="-16"/>
			<point x="432" y="73"/>
			<point x="480" y="245" type="curve"/>
			<point x="459" y="283" type="line"/>
			<point x="418" y="141"/>
			<point x="336" y="51"/>
			<point x="248" y="51" type="curve" smooth="yes"/>
			<point x="172" y="51"/>
			<point x="128" y="105"/>
			<point x="128" y="200" type="curve" smooth="yes"/>
			<point x="128" y="333"/>
			<point x="216" y="441"/>
			<point x="324" y="441" type="curve" smooth="yes"/>
			<point x="404" y="441"/>
			<point x="452" y="383"/>
			<point x="452" y="286" type="curve" smooth="yes"/>
			<point x="452" y="252"/>
			<point x="449" y="224"/>
			<point x="442" y="190" type="curve" smooth="yes"/>
		</contour>
	</outline>
	<guideline y="51"/>
</glyph>
<glyph name="Hbar" format="2">
	<unicode hex="0126"/>
	<advance width="741"/>
	<outline>
		<contour>
			<point x="102" y="527" type="line"/>
			<point x="759" y="527" type="line"/>
			<point x="773" y="595" type="line"/>
			<point x="116" y="595" type="line"/>
		</contour>
		<contour>
			<point x="506" y="0" type="line"/>
			<point x="586" y="0" type="line"/>
			<point x="737" y="715" type="line"/>
			<point x="657" y="715" type="line"/>
		</contour>
		<contour>
			<point x="54" y="0" type="line"/>
			<point x="134" y="0" type="line"/>
			<point x="285" y="715" type="line"/>
			<point x="205" y="715" type="line"/>
		</contour>
		<contour>
			<point x="195" y="336" type="line"/>
			<point x="586" y="336" type="line"/>
			<point x="601" y="407" type="line"/>
			<point x="210" y="407" type="line"/>
		</contour>
	</outline>
</glyph>
<glyph name="hbar" format="2">
	<unicode hex="0127"/>
	<advance width="579"/>
	<outline>
		<contour>
			<point x="81" y="573" type="line"/>
			<point x="381" y="573" type="line"/>
			<point x="394" y="636" type="line"/>
			<point x="95" y="636" type="line"/>
		</contour>
		<contour>
			<point x="33" y="0" type="line"/>
			<point x="110" y="0" type="line"/>
			<point x="138" y="131" type="line" smooth="yes"/>
			<point x="182" y="340"/>
			<point x="252" y="440"/>
			<point x="356" y="440" type="curve" smooth="yes"/>
			<point x="410" y="440"/>
			<point x="443" y="407"/>
			<point x="443" y="354" type="curve" smooth="yes"/>
			<point x="443" y="338"/>
			<point x="440" y="313"/>
			<point x="435" y="290" type="curve" smooth="yes"/>
			<point x="374" y="0" type="line"/>
			<point x="451" y="0" type="line"/>
			<point x="512" y="290" type="line" smooth="yes"/>
			<point x="519" y="323"/>
			<point x="521" y="341"/>
			<point x="521" y="360" type="curve" smooth="yes"/>
			<point x="521" y="450"/>
			<point x="466" y="508"/>
			<point x="373" y="508" type="curve" smooth="yes"/>
			<point x="271" y="508"/>
			<point x="179" y="417"/>
			<point x="146" y="271" type="curve"/>
			<point x="181" y="342" type="line"/>
			<point x="263" y="720" type="line"/>
			<point x="186" y="720" type="line"/>
		</contour>
	</outline>
	<guideline y="440"/>
</glyph>
<glyph name="kgreenlandic" format="2">
	<unicode hex="0138"/>
	<advance width="537"/>
	<outline>
		<contour>
			<point x="33" y="0" type="line"/>
			<point x="110" y="0" type="line"/>
			<point x="213" y="492" type="line"/>
			<point x="137" y="492" type="line"/>
		</contour>
		<contour>
			<point x="361" y="0" type="line"/>
			<point x="469" y="0" type="line"/>
			<point x="236" y="264" type="line"/>
			<point x="232" y="242" type="line"/>
			<point x="553" y="492" type="line"/>
			<point x="447" y="492" type="line"/>
			<point x="149" y="255" type="line"/>
			<point x="139" y="255" type="line"/>
		</contour>
	</outline>
</glyph>
<glyph name="Lslash" format="2">
	<unicode hex="0141"/>
	<advance width="561"/>
	<outline>
		<contour>
			<point x="33" y="200" type="line"/>
			<point x="402" y="430" type="line"/>
			<point x="378" y="486" type="line"/>
			<point x="10" y="256" type="line"/>
		</contour>
		<contour>
			<point x="42" y="0" type="line"/>
			<point x="471" y="0" type="line"/>
			<point x="486" y="71" type="line"/>
			<point x="137" y="71" type="line"/>
			<point x="273" y="715" type="line"/>
			<point x="193" y="715" type="line"/>
		</contour>
	</outline>
	<guideline x="41" y="0" angle="102"/>
</glyph>
<glyph name="lslash" format="2">
	<unicode hex="0142"/>
	<advance width="289"/>
	<outline>
		<contour>
			<point x="46" y="270" type="line"/>
			<point x="324" y="441" type="line"/>
			<point x="300" y="492" type="line"/>
			<point x="22" y="321" type="line"/>
		</contour>
		<contour>
			<point x="73" y="138" type="line" smooth="yes"/>
			<point x="69" y="120"/>
			<point x="68" y="105"/>
			<point x="68" y="91" type="curve" smooth="yes"/>
			<point x="68" y="30"/>
			<point x="105" y="0"/>
			<point x="174" y="0" type="curve" smooth="yes"/>
			<point x="223" y="0" type="line"/>
			<point x="237" y="67" type="line"/>
			<point x="183" y="67" type="line" smooth="yes"/>
			<point x="156" y="67"/>
			<point x="146" y="79"/>
			<point x="146" y="102" type="curve" smooth="yes"/>
			<point x="146" y="115"/>
			<point x="147" y="122"/>
			<point x="151" y="143" type="curve" smooth="yes"/>
			<point x="274" y="720" type="line"/>
			<point x="197" y="720" type="line"/>
		</contour>
	</outline>
</glyph>
<glyph name="Eng" format="2">
	<unicode hex="014A"/>
	<advance width="749"/>
	<outline>
		<contour>
			<point x="172" y="-141" type="line"/>
			<point x="204" y="-184"/>
			<point x="261" y="-204"/>
			<point x="329" y="-204" type="curve" smooth="yes"/>
			<point x="480" y="-204"/>
			<point x="570" y="-108"/>
			<point x="608" y="75" type="curve" smooth="yes"/>
			<point x="743" y="715" type="line"/>
			<point x="666" y="715" type="line"/>
			<point x="530" y="71" type="line" smooth="yes"/>
			<point x="501" y="-63"/>
			<point x="433" y="-132"/>
			<point x="337" y="-132" type="curve" smooth="yes"/>
			<point x="279" y="-132"/>
			<point x="248" y="-116"/>
			<point x="224" y="-87" type="curve"/>
		</contour>
		<contour>
			<point x="54" y="0" type="line"/>
			<point x="131" y="0" type="line"/>
			<point x="264" y="629" type="line"/>
			<point x="248" y="629" type="line"/>
			<point x="518" y="-28" type="line"/>
			<point x="552" y="78" type="line"/>
			<point x="291" y="715" type="line"/>
			<point x="205" y="715" type="line"/>
		</contour>
	</outline>
</glyph>
<glyph name="eng" format="2">
	<unicode hex="014B"/>
	<advance width="579"/>
	<outline>
		<contour>
			<point x="33" y="0" type="line"/>
			<point x="110" y="0" type="line"/>
			<point x="139" y="137" type="line" smooth="yes"/>
			<point x="185" y="346"/>
			<point x="254" y="440"/>
			<point x="356" y="440" type="curve" smooth="yes"/>
			<point x="410" y="440"/>
			<point x="443" y="408"/>
			<point x="443" y="352" type="curve" smooth="yes"/>
			<point x="443" y="336"/>
			<point x="440" y="313"/>
			<point x="433" y="281" type="curve" smooth="yes"/>
			<point x="359" y="-69" type="line" smooth="yes"/>
			<point x="350" y="-113"/>
			<point x="330" y="-130"/>
			<point x="290" y="-130" type="curve" smooth="yes"/>
			<point x="259" y="-130" type="line"/>
			<point x="246" y="-194" type="line"/>
			<point x="302" y="-194" type="line" smooth="yes"/>
			<point x="375" y="-194"/>
			<point x="418" y="-159"/>
			<point x="435" y="-77" type="curve" smooth="yes"/>
			<point x="512" y="289" type="line" smooth="yes"/>
			<point x="519" y="323"/>
			<point x="521" y="343"/>
			<point x="521" y="359" type="curve" smooth="yes"/>
			<point x="521" y="454"/>
			<point x="460" y="508"/>
			<point x="375" y="508" type="curve" smooth="yes"/>
			<point x="289" y="508"/>
			<point x="213" y="449"/>
			<point x="168" y="341" type="curve"/>
			<point x="181" y="341" type="line"/>
			<point x="213" y="492" type="line"/>
			<point x="137" y="492" type="line"/>
		</contour>
	</outline>
</glyph>
<glyph name="OE" format="2">
	<unicode hex="0152"/>
	<advance width="1164"/>
	<outline>
		<contour>
			<point x="354" y="-16" type="curve" smooth="yes"/>
			<point x="552" y="-16"/>
			<point x="713" y="144"/>
			<point x="759" y="358" type="curve" smooth="yes"/>
			<point x="766" y="391"/>
			<point x="769" y="423"/>
			<point x="769" y="453" type="curve" smooth="yes"/>
			<point x="769" y="617"/>
			<point x="681" y="731"/>
			<point x="502" y="731" type="curve" smooth="yes"/>
			<point x="255" y="731"/>
			<point x="79" y="504"/>
			<point x="79" y="266" type="curve" smooth="yes"/>
			<point x="79" y="100"/>
			<point x="186" y="-16"/>
		</contour>
		<contour>
			<point x="370" y="56" type="curve" smooth="yes"/>
			<point x="240" y="56"/>
			<point x="162" y="145"/>
			<point x="162" y="276" type="curve" smooth="yes"/>
			<point x="162" y="473"/>
			<point x="294" y="659"/>
			<point x="492" y="659" type="curve" smooth="yes"/>
			<point x="629" y="659"/>
			<point x="706" y="570"/>
			<point x="706" y="438" type="curve" smooth="yes"/>
			<point x="706" y="413"/>
			<point x="703" y="386"/>
			<point x="697" y="358" type="curve" smooth="yes"/>
			<point x="659" y="183"/>
			<point x="525" y="56"/>
		</contour>
		<contour>
			<point x="623" y="0" type="line"/>
			<point x="1075" y="0" type="line"/>
			<point x="1090" y="70" type="line"/>
			<point x="718" y="70" type="line"/>
			<point x="839" y="645" type="line"/>
			<point x="1198" y="645" type="line"/>
			<point x="1213" y="715" type="line"/>
			<point x="774" y="715" type="line"/>
		</contour>
		<contour>
			<point x="763" y="331" type="line"/>
			<point x="1113" y="331" type="line"/>
			<point x="1128" y="401" type="line"/>
			<point x="778" y="401" type="line"/>
		</contour>
	</outline>
	<guideline y="56"/>
	<guideline y="659"/>
</glyph>
<glyph name="oe" format="2">
	<unicode hex="0153"/>
	<advance width="964"/>
	<outline>
		<contour>
			<point x="511" y="225" type="line"/>
			<point x="727" y="225" type="line" smooth="yes"/>
			<point x="849" y="225"/>
			<point x="920" y="274"/>
			<point x="920" y="358" type="curve" smooth="yes"/>
			<point x="920" y="447"/>
			<point x="844" y="508"/>
			<point x="734" y="508" type="curve" smooth="yes"/>
			<point x="582" y="508"/>
			<point x="458" y="367"/>
			<point x="458" y="196" type="curve" smooth="yes"/>
			<point x="458" y="64"/>
			<point x="538" y="-16"/>
			<point x="670" y="-16" type="curve" smooth="yes"/>
			<point x="757" y="-16"/>
			<point x="827" y="18"/>
			<point x="886" y="87" type="curve"/>
			<point x="837" y="140" type="line"/>
			<point x="794" y="82"/>
			<point x="737" y="51"/>
			<point x="673" y="51" type="curve" smooth="yes"/>
			<point x="584" y="51"/>
			<point x="526" y="108"/>
			<point x="526" y="195" type="curve" smooth="yes"/>
			<point x="526" y="338"/>
			<point x="614" y="441"/>
			<point x="735" y="441" type="curve" smooth="yes"/>
			<point x="799" y="441"/>
			<point x="844" y="406"/>
			<point x="844" y="357" type="curve" smooth="yes"/>
			<point x="844" y="312"/>
			<point x="804" y="288"/>
			<point x="727" y="288" type="curve" smooth="yes"/>
			<point x="511" y="288" type="line"/>
		</contour>
		<contour>
			<point x="253" y="-16" type="curve" smooth="yes"/>
			<point x="405" y="-16"/>
			<point x="524" y="125"/>
			<point x="524" y="306" type="curve" smooth="yes"/>
			<point x="524" y="427"/>
			<point x="445" y="508"/>
			<point x="327" y="508" type="curve" smooth="yes"/>
			<point x="172" y="508"/>
			<point x="47" y="369"/>
			<point x="47" y="196" type="curve" smooth="yes"/>
			<point x="47" y="71"/>
			<point x="132" y="-16"/>
		</contour>
		<contour>
			<point x="265" y="51" type="curve" smooth="yes"/>
			<point x="182" y="51"/>
			<point x="128" y="109"/>
			<point x="128" y="196" type="curve" smooth="yes"/>
			<point x="128" y="333"/>
			<point x="215" y="441"/>
			<point x="326" y="441" type="curve" smooth="yes"/>
			<point x="409" y="441"/>
			<point x="463" y="383"/>
			<point x="463" y="296" type="curve" smooth="yes"/>
			<point x="463" y="159"/>
			<point x="376" y="51"/>
		</contour>
	</outline>
	<guideline y="441"/>
</glyph>
<glyph name="Tbar" format="2">
	<unicode hex="0166"/>
	<advance width="590"/>
	<outline>
		<contour>
			<point x="133" y="332" type="line"/>
			<point x="494" y="332" type="line"/>
			<point x="508" y="400" type="line"/>
			<point x="148" y="400" type="line"/>
		</contour>
		<contour>
			<point x="204" y="0" type="line"/>
			<point x="284" y="0" type="line"/>
			<point x="422" y="654" type="line"/>
			<point x="342" y="654" type="line"/>
		</contour>
		<contour>
			<point x="123" y="644" type="line"/>
			<point x="637" y="644" type="line"/>
			<point x="652" y="715" type="line"/>
			<point x="138" y="715" type="line"/>
		</contour>
	</outline>
</glyph>
<glyph name="tbar" format="2">
	<unicode hex="0167"/>
	<advance width="360"/>
	<outline>
		<contour>
			<point x="69" y="426" type="line"/>
			<point x="354" y="426" type="line"/>
			<point x="368" y="492" type="line"/>
			<point x="83" y="492" type="line"/>
		</contour>
		<contour>
			<point x="31" y="246" type="line"/>
			<point x="316" y="246" type="line"/>
			<point x="330" y="312" type="line"/>
			<point x="45" y="312" type="line"/>
		</contour>
		<contour>
			<point x="100" y="153" type="line" smooth="yes"/>
			<point x="95" y="130"/>
			<point x="92" y="110"/>
			<point x="92" y="94" type="curve" smooth="yes"/>
			<point x="92" y="32"/>
			<point x="125" y="0"/>
			<point x="198" y="0" type="curve" smooth="yes"/>
			<point x="279" y="0" type="line"/>
			<point x="293" y="67" type="line"/>
			<point x="212" y="67" type="line" smooth="yes"/>
			<point x="180" y="67"/>
			<point x="170" y="77"/>
			<point x="170" y="105" type="curve" smooth="yes"/>
			<point x="170" y="114"/>
			<point x="172" y="126"/>
			<point x="175" y="142" type="curve" smooth="yes"/>
			<point x="280" y="636" type="line"/>
			<point x="203" y="636" type="line"/>
		</contour>
	</outline>
</glyph>
<glyph name="dotlessj" format="2">
	<unicode hex="0237"/>
	<advance width="239"/>
	<outline>
		<contour>
			<point x="-89" y="-194" type="line"/>
			<point x="-47" y="-194" type="line" smooth="yes"/>
			<point x="36" y="-194"/>
			<point x="77" y="-160"/>
			<point x="95" y="-73" type="curve" smooth="yes"/>
			<point x="214" y="492" type="line"/>
			<point x="137" y="492" type="line"/>
			<point x="19" y="-67" type="line" smooth="yes"/>
			<point x="10" y="-108"/>
			<point x="-8" y="-130"/>
			<point x="-49" y="-130" type="curve" smooth="yes"/>
			<point x="-76" y="-130" type="line"/>
		</contour>
	</outline>
	<anchor name="top.LC" x="187" y="544"/>
</glyph>
<glyph name="circumflexcomb" format="2">
	<unicode hex="0302"/>
	<outline>
		<contour>
			<point x="-137" y="587" type="line"/>
			<point x="-69" y="587" type="line"/>
			<point x="76" y="745" type="line"/>
			<point x="13" y="745" type="line"/>
			<point x="91" y="587" type="line"/>
			<point x="158" y="587" type="line"/>
			<point x="81" y="761" type="line"/>
			<point x="14" y="761" type="line"/>
		</contour>
	</outline>
	<anchor name="_top.LC" x="0" y="544"/>
</glyph>
<glyph name="tildecomb" format="2">
	<unicode hex="0303"/>
	<outline>
		<contour>
			<point x="-51" y="720" type="curve" smooth="yes"/>
			<point x="-96" y="720"/>
			<point x="-128" y="690"/>
			<point x="-151" y="628" type="curve"/>
			<point x="-103" y="600" type="line"/>
			<point x="-89" y="638"/>
			<point x="-72" y="660"/>
			<point x="-55" y="660" type="curve" smooth="yes"/>
			<point x="-43" y="660"/>
			<point x="-36" y="655"/>
			<point x="-12" y="632" type="curve" smooth="yes"/>
			<point x="15" y="607"/>
			<point x="34" y="598"/>
			<point x="61" y="598" type="curve" smooth="yes"/>
			<point x="106" y="598"/>
			<point x="138" y="628"/>
			<point x="161" y="690" type="curve"/>
			<point x="113" y="718" type="line"/>
			<point x="99" y="680"/>
			<point x="83" y="658"/>
			<point x="64" y="658" type="curve" smooth="yes"/>
			<point x="54" y="658"/>
			<point x="47" y="662"/>
			<point x="23" y="685" type="curve" smooth="yes"/>
			<point x="-4" y="710"/>
			<point x="-23" y="720"/>
		</contour>
	</outline>
	<anchor name="_top.LC" x="0" y="544"/>
</glyph>
<glyph name="brevecomb" format="2">
	<unicode hex="0306"/>
	<outline>
		<contour>
			<point x="-100" y="732" type="line"/>
			<point x="-102" y="717"/>
			<point x="-102" y="711"/>
			<point x="-102" y="704" type="curve" smooth="yes"/>
			<point x="-102" y="631"/>
			<point x="-57" y="582"/>
			<point x="11" y="582" type="curve" smooth="yes"/>
			<point x="99" y="582"/>
			<point x="151" y="628"/>
			<point x="181" y="732" type="curve"/>
			<point x="120" y="732" type="line"/>
			<point x="100" y="671"/>
			<point x="66" y="639"/>
			<point x="20" y="639" type="curve" smooth="yes"/>
			<point x="-18" y="639"/>
			<point x="-41" y="668"/>
			<point x="-41" y="715" type="curve" smooth="yes"/>
			<point x="-41" y="720"/>
			<point x="-41" y="727"/>
			<point x="-40" y="732" type="curve"/>
		</contour>
	</outline>
	<anchor name="_top.LC" x="0" y="544"/>
</glyph>
<glyph name="dotaccentcomb" format="2">
	<unicode hex="0307"/>
	<outline>
		<contour>
			<point x="18" y="624" type="curve" smooth="yes"/>
			<point x="55" y="624"/>
			<point x="82" y="654"/>
			<point x="82" y="689" type="curve" smooth="yes"/>
			<point x="82" y="713"/>
			<point x="65" y="731"/>
			<point x="40" y="731" type="curve" smooth="yes"/>
			<point x="3" y="731"/>
			<point x="-24" y="701"/>
			<point x="-24" y="666" type="curve" smooth="yes"/>
			<point x="-24" y="642"/>
			<point x="-7" y="624"/>
		</contour>
	</outline>
	<anchor name="_top.LC" x="0" y="544"/>
</glyph>
<glyph name="dieresiscomb" format="2">
	<unicode hex="0308"/>
	<outline>
		<contour>
			<point x="-74" y="624" type="curve" smooth="yes"/>
			<point x="-37" y="624"/>
			<point x="-10" y="654"/>
			<point x="-10" y="689" type="curve" smooth="yes"/>
			<point x="-10" y="713"/>
			<point x="-27" y="731"/>
			<point x="-52" y="731" type="curve" smooth="yes"/>
			<point x="-89" y="731"/>
			<point x="-116" y="701"/>
			<point x="-116" y="666" type="curve" smooth="yes"/>
			<point x="-116" y="642"/>
			<point x="-99" y="624"/>
		</contour>
		<contour>
			<point x="113" y="624" type="curve" smooth="yes"/>
			<point x="150" y="624"/>
			<point x="177" y="654"/>
			<point x="177" y="689" type="curve" smooth="yes"/>
			<point x="177" y="713"/>
			<point x="160" y="731"/>
			<point x="135" y="731" type="curve" smooth="yes"/>
			<point x="98" y="731"/>
			<point x="71" y="701"/>
			<point x="71" y="666" type="curve" smooth="yes"/>
			<point x="71" y="642"/>
			<point x="88" y="624"/>
		</contour>
	</outline>
	<anchor name="_top.LC" x="0" y="544"/>
</glyph>
<glyph name="hungarumlautcomb" format="2">
	<unicode hex="030B"/>
	<outline>
		<contour>
			<point x="-150" y="587" type="line"/>
			<point x="-82" y="587" type="line"/>
			<point x="116" y="761" type="line"/>
			<point x="24" y="761" type="line"/>
		</contour>
		<contour>
			<point x="12" y="587" type="line"/>
			<point x="81" y="587" type="line"/>
			<point x="281" y="761" type="line"/>
			<point x="188" y="761" type="line"/>
		</contour>
	</outline>
	<anchor name="_top.LC" x="0" y="544"/>
</glyph>
<glyph name="dotbelowcomb" format="2">
	<unicode hex="0323"/>
	<outline>
		<contour>
			<point x="-39" y="-237" type="curve" smooth="yes"/>
			<point x="-2" y="-237"/>
			<point x="25" y="-207"/>
			<point x="25" y="-172" type="curve" smooth="yes"/>
			<point x="25" y="-148"/>
			<point x="8" y="-130"/>
			<point x="-17" y="-130" type="curve" smooth="yes"/>
			<point x="-54" y="-130"/>
			<point x="-81" y="-160"/>
			<point x="-81" y="-195" type="curve" smooth="yes"/>
			<point x="-81" y="-219"/>
			<point x="-64" y="-237"/>
		</contour>
	</outline>
	<anchor name="_bottom.LC" x="0" y="-50"/>
</glyph>
<glyph name="commabelowcomb" format="2">
	<unicode hex="0326"/>
	<outline>
		<contour>
			<point x="-45" y="-270" type="line"/>
			<point x="6" y="-210"/>
			<point x="29" y="-168"/>
			<point x="29" y="-134" type="curve" smooth="yes"/>
			<point x="29" y="-108"/>
			<point x="13" y="-90"/>
			<point x="-12" y="-90" type="curve" smooth="yes"/>
			<point x="-44" y="-90"/>
			<point x="-64" y="-112"/>
			<point x="-64" y="-145" type="curve" smooth="yes"/>
			<point x="-64" y="-167"/>
			<point x="-48" y="-182"/>
			<point x="-23" y="-182" type="curve"/>
			<point x="-35" y="-163" type="line"/>
			<point x="-38" y="-189"/>
			<point x="-62" y="-232"/>
			<point x="-94" y="-270" type="curve"/>
		</contour>
	</outline>
	<anchor name="_bottom.LC" x="0" y="-50"/>
</glyph>
<glyph name="quoteleft" format="2">
	<unicode hex="2018"/>
	<advance width="231"/>
	<outline>
		<contour>
			<point x="193" y="586" type="line"/>
			<point x="197" y="625"/>
			<point x="233" y="686"/>
			<point x="281" y="736" type="curve"/>
			<point x="230" y="736" type="line"/>
			<point x="173" y="689"/>
			<point x="117" y="594"/>
			<point x="117" y="537" type="curve" smooth="yes"/>
			<point x="117" y="507"/>
			<point x="130" y="488"/>
			<point x="165" y="488" type="curve" smooth="yes"/>
			<point x="204" y="488"/>
			<point x="236" y="519"/>
			<point x="236" y="558" type="curve" smooth="yes"/>
			<point x="236" y="587"/>
			<point x="217" y="605"/>
			<point x="188" y="605" type="curve"/>
		</contour>
	</outline>
	<guideline y="488"/>
</glyph>
<glyph name="quoteright" format="2">
	<unicode hex="2019"/>
	<advance width="231"/>
	<outline>
		<contour>
			<point x="159" y="492" type="line"/>
			<point x="208" y="536"/>
			<point x="271" y="627"/>
			<point x="271" y="688" type="curve" smooth="yes"/>
			<point x="271" y="721"/>
			<point x="249" y="740"/>
			<point x="221" y="740" type="curve" smooth="yes"/>
			<point x="181" y="740"/>
			<point x="155" y="711"/>
			<point x="155" y="671" type="curve" smooth="yes"/>
			<point x="155" y="644"/>
			<point x="176" y="623"/>
			<point x="201" y="623" type="curve"/>
			<point x="197" y="642" type="line"/>
			<point x="193" y="604"/>
			<point x="164" y="554"/>
			<point x="111" y="492" type="curve"/>
		</contour>
	</outline>
</glyph>
<glyph name="dagger" format="2">
	<unicode hex="2020"/>
	<advance width="434"/>
	<outline>
		<contour>
			<point x="82" y="426" type="line"/>
			<point x="432" y="426" type="line"/>
			<point x="446" y="492" type="line"/>
			<point x="96" y="492" type="line"/>
		</contour>
		<contour>
			<point x="102" y="-129" type="line"/>
			<point x="177" y="-129" type="line"/>
			<point x="360" y="736" type="line"/>
			<point x="285" y="736" type="line"/>
		</contour>
	</outline>
</glyph>
<glyph name="daggerdbl" format="2">
	<unicode hex="2021"/>
	<advance width="434"/>
	<outline>
		<contour>
			<point x="102" y="-129" type="line"/>
			<point x="177" y="-129" type="line"/>
			<point x="360" y="736" type="line"/>
			<point x="285" y="736" type="line"/>
		</contour>
		<contour>
			<point x="82" y="426" type="line"/>
			<point x="432" y="426" type="line"/>
			<point x="446" y="492" type="line"/>
			<point x="96" y="492" type="line"/>
		</contour>
		<contour>
			<point x="15" y="113" type="line"/>
			<point x="365" y="113" type="line"/>
			<point x="379" y="179" type="line"/>
			<point x="29" y="179" type="line"/>
		</contour>
	</outline>
</glyph>
<glyph name="bullet" format="2">
	<unicode hex="2022"/>
	<advance width="350"/>
	<outline>
		<contour>
			<point x="61" y="249" type="curve" smooth="yes"/>
			<point x="61" y="195"/>
			<point x="101" y="156"/>
			<point x="156" y="156" type="curve" smooth="yes"/>
			<point x="231" y="156"/>
			<point x="302" y="225"/>
			<point x="302" y="299" type="curve" smooth="yes"/>
			<point x="302" y="353"/>
			<point x="262" y="392"/>
			<point x="207" y="392" type="curve" smooth="yes"/>
			<point x="132" y="392"/>
			<point x="61" y="323"/>
		</contour>
	</outline>
</glyph>
<glyph name="guilsinglright" format="2">
	<unicode hex="203A"/>
	<advance width="289"/>
	<outline>
		<contour>
			<point x="-4" y="34" type="line"/>
			<point x="78" y="34" type="line"/>
			<point x="259" y="246" type="line"/>
			<point x="170" y="458" type="line"/>
			<point x="87" y="458" type="line"/>
			<point x="176" y="246" type="line"/>
		</contour>
	</outline>
</glyph>
<glyph name="fraction" format="2">
	<unicode hex="2044"/>
	<advance width="167"/>
	<outline>
		<contour>
			<point x="-226" y="0" type="line"/>
			<point x="-141" y="0" type="line"/>
			<point x="441" y="715" type="line"/>
			<point x="356" y="715" type="line"/>
		</contour>
	</outline>
</glyph>
<glyph name="Euro" format="2">
	<unicode hex="20AC"/>
	<advance width="631"/>
	<outline>
		<contour>
			<point x="537" y="164" type="line"/>
			<point x="475" y="91"/>
			<point x="408" y="54"/>
			<point x="336" y="54" type="curve" smooth="yes"/>
			<point x="236" y="54"/>
			<point x="179" y="124"/>
			<point x="179" y="248" type="curve" smooth="yes"/>
			<point x="179" y="473"/>
			<point x="309" y="661"/>
			<point x="466" y="661" type="curve" smooth="yes"/>
			<point x="542" y="661"/>
			<point x="590" y="629"/>
			<point x="627" y="556" type="curve"/>
			<point x="685" y="601" type="line"/>
			<point x="644" y="685"/>
			<point x="571" y="731"/>
			<point x="481" y="731" type="curve" smooth="yes"/>
			<point x="275" y="731"/>
			<point x="98" y="506"/>
			<point x="98" y="245" type="curve" smooth="yes"/>
			<point x="98" y="84"/>
			<point x="183" y="-16"/>
			<point x="320" y="-16" type="curve" smooth="yes"/>
			<point x="423" y="-16"/>
			<point x="505" y="24"/>
			<point x="583" y="111" type="curve"/>
		</contour>
		<contour>
			<point x="24" y="246" type="line"/>
			<point x="437" y="246" type="line"/>
			<point x="463" y="312" type="line"/>
			<point x="38" y="312" type="line"/>
		</contour>
		<contour>
			<point x="58" y="406" type="line"/>
			<point x="499" y="406" type="line"/>
			<point x="525" y="472" type="line"/>
			<point x="72" y="472" type="line"/>
		</contour>
	</outline>
	<guideline y="661"/>
	<guideline y="731"/>
</glyph>
<glyph name="trademark" format="2">
	<unicode hex="2122"/>
	<advance width="804"/>
	<outline>
		<contour>
			<point x="185" y="316" type="line"/>
			<point x="245" y="316" type="line"/>
			<point x="245" y="668" type="line"/>
			<point x="185" y="668" type="line"/>
		</contour>
		<contour>
			<point x="65" y="663" type="line"/>
			<point x="366" y="663" type="line"/>
			<point x="366" y="715" type="line"/>
			<point x="65" y="715" type="line"/>
		</contour>
		<contour>
			<point x="416" y="316" type="line"/>
			<point x="476" y="316" type="line"/>
			<point x="476" y="685" type="line"/>
			<point x="447" y="684" type="line"/>
			<point x="596" y="355" type="line"/>
			<point x="640" y="355" type="line"/>
			<point x="789" y="684" type="line"/>
			<point x="760" y="685" type="line"/>
			<point x="760" y="316" type="line"/>
			<point x="820" y="316" type="line"/>
			<point x="820" y="715" type="line"/>
			<point x="747" y="715" type="line"/>
			<point x="605" y="394" type="line"/>
			<point x="632" y="394" type="line"/>
			<point x="490" y="715" type="line"/>
			<point x="416" y="715" type="line"/>
		</contour>
	</outline>
</glyph>
<glyph name="arrowleft" format="2">
	<unicode hex="2190"/>
	<advance width="931"/>
	<outline>
		<contour>
			<point x="95" y="246" type="line"/>
			<point x="351" y="0" type="line"/>
			<point x="455" y="0" type="line"/>
			<point x="203" y="246" type="line"/>
			<point x="455" y="492" type="line"/>
			<point x="351" y="492" type="line"/>
		</contour>
		<contour>
			<point x="188" y="210" type="line"/>
			<point x="826" y="210" type="line"/>
			<point x="826" y="282" type="line"/>
			<point x="188" y="282" type="line"/>
		</contour>
	</outline>
</glyph>
<glyph name="arrowright" format="2">
	<unicode hex="2192"/>
	<advance width="931"/>
	<outline>
		<contour>
			<point x="476" y="0" type="line"/>
			<point x="580" y="0" type="line"/>
			<point x="836" y="246" type="line"/>
			<point x="580" y="492" type="line"/>
			<point x="476" y="492" type="line"/>
			<point x="728" y="246" type="line"/>
		</contour>
		<contour>
			<point x="105" y="210" type="line"/>
			<point x="743" y="210" type="line"/>
			<point x="743" y="282" type="line"/>
			<point x="105" y="282" type="line"/>
		</contour>
	</outline>
</glyph>
<glyph name="minus" format="2">
	<unicode hex="2212"/>
	<advance width="632"/>
	<outline>
		<contour>
			<point x="147" y="325" type="line"/>
			<point x="518" y="325" type="line"/>
			<point x="531" y="389" type="line"/>
			<point x="160" y="389" type="line"/>
		</contour>
	</outline>
</glyph>
<glyph name="checkmark" format="2">
	<unicode hex="2713"/>
	<advance width="966"/>
	<outline>
		<contour>
			<point x="449" y="0" type="line"/>
			<point x="910" y="593" type="line"/>
			<point x="846" y="646" type="line"/>
			<point x="420" y="98" type="line"/>
			<point x="473" y="98" type="line"/>
			<point x="203" y="385" type="line"/>
			<point x="144" y="324" type="line"/>
		</contour>
	</outline>
</glyph>
<glyph name="acutecomb.cap" format="2">
	<outline>
		<contour>
			<point x="-52" y="779" type="line"/>
			<point x="25" y="779" type="line"/>
			<point x="199" y="923" type="line"/>
			<point x="97" y="923" type="line"/>
		</contour>
	</outline>
	<anchor name="_top.UC" x="0" y="750"/>
</glyph>
<glyph name="brevecomb.cap" format="2">
	<outline>
		<contour>
			<point x="-110" y="934" type="line"/>
			<point x="-111" y="927"/>
			<point x="-111" y="921"/>
			<point x="-111" y="914" type="curve" smooth="yes"/>
			<point x="-111" y="842"/>
			<point x="-62" y="795"/>
			<point x="13" y="795" type="curve" smooth="yes"/>
			<point x="107" y="795"/>
			<point x="170" y="851"/>
			<point x="190" y="934" type="curve"/>
			<point x="127" y="934" type="line"/>
			<point x="110" y="884"/>
			<point x="71" y="855"/>
			<point x="23" y="855" type="curve" smooth="yes"/>
			<point x="-20" y="855"/>
			<point x="-47" y="880"/>
			<point x="-47" y="923" type="curve" smooth="yes"/>
			<point x="-47" y="934" type="line"/>
		</contour>
	</outline>
	<anchor name="_top.UC" x="0" y="750"/>
</glyph>
<glyph name="cedillacomb.cap" format="2">
	<outline>
		<contour>
			<point x="-124" y="-219" type="line"/>
			<point x="-104" y="-243"/>
			<point x="-75" y="-255"/>
			<point x="-36" y="-255" type="curve" smooth="yes"/>
			<point x="42" y="-255"/>
			<point x="97" y="-204"/>
			<point x="97" y="-133" type="curve" smooth="yes"/>
			<point x="97" y="-85"/>
			<point x="58" y="-54"/>
			<point x="-1" y="-54" type="curve"/>
			<point x="20" y="-74" type="line"/>
			<point x="51" y="10" type="line"/>
			<point x="0" y="10" type="line"/>
			<point x="-50" y="-115" type="line"/>
			<point x="-39" y="-112"/>
			<point x="-28" y="-110"/>
			<point x="-15" y="-110" type="curve" smooth="yes"/>
			<point x="15" y="-110"/>
			<point x="32" y="-123"/>
			<point x="32" y="-146" type="curve" smooth="yes"/>
			<point x="32" y="-177"/>
			<point x="6" y="-199"/>
			<point x="-30" y="-199" type="curve" smooth="yes"/>
			<point x="-52" y="-199"/>
			<point x="-75" y="-188"/>
			<point x="-86" y="-173" type="curve"/>
		</contour>
	</outline>
	<anchor name="_bottom.UC" x="0" y="-50"/>
</glyph>
<glyph name="circumflexcomb.cap" format="2">
	<outline>
		<contour>
			<point x="-145" y="799" type="line"/>
			<point x="-70" y="799" type="line"/>
			<point x="75" y="927" type="line"/>
			<point x="2" y="927" type="line"/>
			<point x="94" y="799" type="line"/>
			<point x="167" y="799" type="line"/>
			<point x="74" y="943" type="line"/>
			<point x="8" y="943" type="line"/>
		</contour>
	</outline>
	<anchor name="_top.UC" x="0" y="750"/>
</glyph>
<glyph name="circumflexcomb.narrow" format="2">
	<outline>
		<contour>
			<point x="-131" y="587" type="line"/>
			<point x="-62" y="587" type="line"/>
			<point x="82" y="744" type="line"/>
			<point x="7" y="744" type="line"/>
			<point x="84" y="587" type="line"/>
			<point x="152" y="587" type="line"/>
			<point x="75" y="761" type="line"/>
			<point x="20" y="761" type="line"/>
		</contour>
	</outline>
	<anchor name="_top.LC" x="0" y="544"/>
</glyph>
<glyph name="commaaboverightcomb.short" format="2">
	<outline>
		<contour>
			<point x="-3" y="554" type="line"/>
			<point x="29" y="592"/>
			<point x="70" y="640"/>
			<point x="70" y="685" type="curve" smooth="yes"/>
			<point x="70" y="714"/>
			<point x="54" y="731"/>
			<point x="25" y="731" type="curve" smooth="yes"/>
			<point x="-6" y="731"/>
			<point x="-29" y="707"/>
			<point x="-29" y="676" type="curve" smooth="yes"/>
			<point x="-29" y="650"/>
			<point x="-11" y="633"/>
			<point x="15" y="633" type="curve"/>
			<point x="1" y="654" type="line"/>
			<point x="-3" y="628"/>
			<point x="-28" y="589"/>
			<point x="-55" y="554" type="curve"/>
		</contour>
	</outline>
	<anchor name="_top_right.LC.short" x="0" y="540"/>
</glyph>
<glyph name="dieresiscomb.cap" format="2">
	<outline>
		<contour>
			<point x="-86" y="811" type="curve" smooth="yes"/>
			<point x="-48" y="811"/>
			<point x="-20" y="842"/>
			<point x="-20" y="877" type="curve" smooth="yes"/>
			<point x="-20" y="902"/>
			<point x="-38" y="920"/>
			<point x="-62" y="920" type="curve" smooth="yes"/>
			<point x="-101" y="920"/>
			<point x="-129" y="889"/>
			<point x="-129" y="854" type="curve" smooth="yes"/>
			<point x="-129" y="829"/>
			<point x="-111" y="811"/>
		</contour>
		<contour>
			<point x="111" y="811" type="curve" smooth="yes"/>
			<point x="149" y="811"/>
			<point x="177" y="842"/>
			<point x="177" y="877" type="curve" smooth="yes"/>
			<point x="177" y="902"/>
			<point x="159" y="920"/>
			<point x="135" y="920" type="curve" smooth="yes"/>
			<point x="96" y="920"/>
			<point x="68" y="889"/>
			<point x="68" y="854" type="curve" smooth="yes"/>
			<point x="68" y="829"/>
			<point x="86" y="811"/>
		</contour>
	</outline>
	<anchor name="_top.UC" x="0" y="750"/>
</glyph>
<glyph name="dieresiscomb.narrow" format="2">
	<outline>
		<contour>
			<point x="-60" y="624" type="curve" smooth="yes"/>
			<point x="-23" y="624"/>
			<point x="4" y="654"/>
			<point x="4" y="689" type="curve" smooth="yes"/>
			<point x="4" y="713"/>
			<point x="-13" y="731"/>
			<point x="-38" y="731" type="curve" smooth="yes"/>
			<point x="-75" y="731"/>
			<point x="-102" y="701"/>
			<point x="-102" y="666" type="curve" smooth="yes"/>
			<point x="-102" y="642"/>
			<point x="-85" y="624"/>
		</contour>
		<contour>
			<point x="88" y="624" type="curve" smooth="yes"/>
			<point x="125" y="624"/>
			<point x="152" y="654"/>
			<point x="152" y="689" type="curve" smooth="yes"/>
			<point x="152" y="713"/>
			<point x="135" y="731"/>
			<point x="110" y="731" type="curve" smooth="yes"/>
			<point x="73" y="731"/>
			<point x="46" y="701"/>
			<point x="46" y="666" type="curve" smooth="yes"/>
			<point x="46" y="642"/>
			<point x="63" y="624"/>
		</contour>
	</outline>
	<anchor name="_top.LC" x="0" y="544"/>
</glyph>
<glyph name="dotaccentcomb.cap" format="2">
	<outline>
		<contour>
			<point x="12" y="809" type="curve" smooth="yes"/>
			<point x="51" y="809"/>
			<point x="81" y="840"/>
			<point x="81" y="878" type="curve" smooth="yes"/>
			<point x="81" y="905"/>
			<point x="64" y="922"/>
			<point x="36" y="922" type="curve" smooth="yes"/>
			<point x="-2" y="922"/>
			<point x="-32" y="891"/>
			<point x="-32" y="853" type="curve" smooth="yes"/>
			<point x="-32" y="826"/>
			<point x="-15" y="809"/>
		</contour>
	</outline>
	<anchor name="_top.UC" x="0" y="750"/>
</glyph>
<glyph name="dotbelowcomb.cap" format="2">
	<outline>
		<contour>
			<point x="-81" y="-178" type="curve" smooth="yes"/>
			<point x="-81" y="-204"/>
			<point x="-64" y="-222"/>
			<point x="-36" y="-222" type="curve" smooth="yes"/>
			<point x="3" y="-222"/>
			<point x="32" y="-189"/>
			<point x="32" y="-153" type="curve" smooth="yes"/>
			<point x="32" y="-127"/>
			<point x="15" y="-109"/>
			<point x="-12" y="-109" type="curve" smooth="yes"/>
			<point x="-52" y="-109"/>
			<point x="-81" y="-142"/>
		</contour>
	</outline>
	<anchor name="_bottom.UC" x="0" y="-50"/>
</glyph>
<glyph name="exclamdown.case" format="2">
	<advance width="222"/>
	<outline>
		<contour>
			<point x="150" y="499" type="line"/>
			<point x="135" y="443"/>
			<point x="63" y="167"/>
			<point x="37" y="60" type="curve" smooth="yes"/>
			<point x="30" y="32"/>
			<point x="27" y="19"/>
			<point x="27" y="12" type="curve" smooth="yes"/>
			<point x="27" y="-13"/>
			<point x="42" y="-28"/>
			<point x="66" y="-28" type="curve" smooth="yes"/>
			<point x="78" y="-28"/>
			<point x="89" y="-25"/>
			<point x="97" y="-19" type="curve" smooth="yes"/>
			<point x="109" y="-10"/>
			<point x="117" y="5"/>
			<point x="121" y="27" type="curve" smooth="yes"/>
			<point x="127" y="56"/>
			<point x="194" y="448"/>
			<point x="202" y="499" type="curve"/>
		</contour>
		<contour>
			<point x="149" y="646" type="curve" smooth="yes"/>
			<point x="149" y="617"/>
			<point x="170" y="597"/>
			<point x="199" y="597" type="curve" smooth="yes"/>
			<point x="238" y="597"/>
			<point x="266" y="625"/>
			<point x="266" y="666" type="curve" smooth="yes"/>
			<point x="266" y="695"/>
			<point x="245" y="715"/>
			<point x="216" y="715" type="curve" smooth="yes"/>
			<point x="177" y="715"/>
			<point x="149" y="687"/>
		</contour>
	</outline>
</glyph>
<glyph name="five.dnom" format="2">
	<advance width="373"/>
	<outline>
		<contour>
			<point x="37" y="177" type="line"/>
			<point x="97" y="177" type="line"/>
			<point x="120" y="200"/>
			<point x="148" y="212"/>
			<point x="179" y="212" type="curve" smooth="yes"/>
			<point x="215" y="212"/>
			<point x="240" y="187"/>
			<point x="240" y="151" type="curve" smooth="yes"/>
			<point x="240" y="95"/>
			<point x="192" y="48"/>
			<point x="135" y="48" type="curve" smooth="yes"/>
			<point x="99" y="48"/>
			<point x="75" y="66"/>
			<point x="52" y="111" type="curve"/>
			<point x="2" y="72" type="line"/>
			<point x="25" y="19"/>
			<point x="70" y="-9"/>
			<point x="132" y="-9" type="curve" smooth="yes"/>
			<point x="229" y="-9"/>
			<point x="308" y="68"/>
			<point x="308" y="164" type="curve" smooth="yes"/>
			<point x="308" y="227"/>
			<point x="264" y="269"/>
			<point x="198" y="269" type="curve" smooth="yes"/>
			<point x="163" y="269"/>
			<point x="129" y="254"/>
			<point x="102" y="227" type="curve"/>
			<point x="111" y="221" type="line"/>
			<point x="159" y="370" type="line"/>
			<point x="133" y="351" type="line"/>
			<point x="324" y="351" type="line"/>
			<point x="336" y="408" type="line"/>
			<point x="112" y="408" type="line"/>
		</contour>
	</outline>
</glyph>
<glyph name="four.dnom" format="2">
	<advance width="407"/>
	<outline>
		<contour>
			<point x="195" y="0" type="line"/>
			<point x="260" y="0" type="line"/>
			<point x="347" y="408" type="line"/>
			<point x="282" y="408" type="line"/>
			<point x="22" y="154" type="line"/>
			<point x="10" y="97" type="line"/>
			<point x="339" y="97" type="line"/>
			<point x="351" y="154" type="line"/>
			<point x="73" y="154" type="line"/>
			<point x="79" y="140" type="line"/>
			<point x="278" y="340" type="line"/>
			<point x="268" y="346" type="line"/>
		</contour>
	</outline>
</glyph>
<glyph name="gravecomb.cap" format="2">
	<outline>
		<contour>
			<point x="-38" y="799" type="line"/>
			<point x="37" y="799" type="line"/>
			<point x="-57" y="943" type="line"/>
			<point x="-152" y="943" type="line"/>
		</contour>
	</outline>
	<anchor name="_top.UC" x="0" y="750"/>
</glyph>
<glyph name="hungarumlautcomb.cap" format="2">
	<outline>
		<contour>
			<point x="-144" y="789" type="line"/>
			<point x="-66" y="789" type="line"/>
			<point x="130" y="953" type="line"/>
			<point x="28" y="953" type="line"/>
		</contour>
		<contour>
			<point x="19" y="789" type="line"/>
			<point x="97" y="789" type="line"/>
			<point x="295" y="953" type="line"/>
			<point x="193" y="953" type="line"/>
		</contour>
	</outline>
	<anchor name="_top.UC" x="0" y="750"/>
</glyph>
<glyph name="nine.dnom" format="2">
	<advance width="396"/>
	<outline>
		<contour>
			<point x="124" y="0" type="line"/>
			<point x="288" y="117"/>
			<point x="354" y="203"/>
			<point x="354" y="300" type="curve" smooth="yes"/>
			<point x="354" y="371"/>
			<point x="305" y="417"/>
			<point x="229" y="417" type="curve" smooth="yes"/>
			<point x="126" y="417"/>
			<point x="54" y="348"/>
			<point x="54" y="247" type="curve" smooth="yes"/>
			<point x="54" y="183"/>
			<point x="99" y="140"/>
			<point x="168" y="140" type="curve" smooth="yes"/>
			<point x="209" y="140"/>
			<point x="249" y="167"/>
			<point x="277" y="211" type="curve"/>
			<point x="267" y="217" type="line"/>
			<point x="238" y="153"/>
			<point x="171" y="91"/>
			<point x="32" y="0" type="curve"/>
		</contour>
		<contour>
			<point x="120" y="259" type="curve" smooth="yes"/>
			<point x="120" y="317"/>
			<point x="163" y="359"/>
			<point x="222" y="359" type="curve" smooth="yes"/>
			<point x="262" y="359"/>
			<point x="288" y="333"/>
			<point x="288" y="295" type="curve" smooth="yes"/>
			<point x="288" y="242"/>
			<point x="241" y="196"/>
			<point x="188" y="196" type="curve" smooth="yes"/>
			<point x="147" y="196"/>
			<point x="120" y="221"/>
		</contour>
	</outline>
</glyph>
<glyph name="ogonekcomb.cap" format="2">
	<outline>
		<contour>
			<point x="53" y="-180" type="line"/>
			<point x="41" y="-182"/>
			<point x="30" y="-183"/>
			<point x="24" y="-183" type="curve" smooth="yes"/>
			<point x="-4" y="-183"/>
			<point x="-23" y="-169"/>
			<point x="-23" y="-141" type="curve" smooth="yes"/>
			<point x="-23" y="-76"/>
			<point x="43" y="-29"/>
			<point x="91" y="0" type="curve"/>
			<point x="44" y="22" type="line"/>
			<point x="-25" y="-23"/>
			<point x="-93" y="-84"/>
			<point x="-93" y="-166" type="curve" smooth="yes"/>
			<point x="-93" y="-219"/>
			<point x="-56" y="-248"/>
			<point x="0" y="-248" type="curve" smooth="yes"/>
			<point x="13" y="-248"/>
			<point x="25" y="-247"/>
			<point x="39" y="-244" type="curve"/>
		</contour>
	</outline>
	<anchor name="_ogonek.UC" x="0" y="-30"/>
</glyph>
<glyph name="ogonekcomb.round.cap" format="2">
	<outline>
		<contour>
			<point x="41" y="-179" type="line"/>
			<point x="31" y="-182"/>
			<point x="20" y="-183"/>
			<point x="12" y="-183" type="curve" smooth="yes"/>
			<point x="-17" y="-183"/>
			<point x="-35" y="-167"/>
			<point x="-35" y="-140" type="curve" smooth="yes"/>
			<point x="-35" y="-84"/>
			<point x="22" y="-23"/>
			<point x="115" y="23" type="curve"/>
			<point x="57" y="23" type="line"/>
			<point x="-53" y="-31"/>
			<point x="-105" y="-91"/>
			<point x="-105" y="-166" type="curve" smooth="yes"/>
			<point x="-105" y="-217"/>
			<point x="-70" y="-248"/>
			<point x="-12" y="-248" type="curve" smooth="yes"/>
			<point x="3" y="-248"/>
			<point x="15" y="-247"/>
			<point x="27" y="-244" type="curve"/>
		</contour>
	</outline>
	<anchor name="_ogonek.UC.round" x="0" y="-30"/>
</glyph>
<glyph name="ogonekcomb.round" format="2">
	<outline>
		<contour>
			<point x="18" y="-180" type="line"/>
			<point x="8" y="-182"/>
			<point x="-3" y="-184"/>
			<point x="-11" y="-184" type="curve" smooth="yes"/>
			<point x="-41" y="-184"/>
			<point x="-59" y="-167"/>
			<point x="-59" y="-138" type="curve" smooth="yes"/>
			<point x="-59" y="-87"/>
			<point x="-4" y="-17"/>
			<point x="90" y="53" type="curve"/>
			<point x="46" y="53" type="line"/>
			<point x="-71" y="-21"/>
			<point x="-127" y="-91"/>
			<point x="-127" y="-164" type="curve" smooth="yes"/>
			<point x="-127" y="-215"/>
			<point x="-91" y="-247"/>
			<point x="-35" y="-247" type="curve" smooth="yes"/>
			<point x="-20" y="-247"/>
			<point x="-8" y="-246"/>
			<point x="4" y="-243" type="curve"/>
		</contour>
	</outline>
	<anchor name="_ogonek.LC.round" x="0" y="-30"/>
</glyph>
<glyph name="questiondown.case" format="2">
	<advance width="559"/>
	<outline>
		<contour>
			<point x="436" y="159" type="line"/>
			<point x="377" y="81"/>
			<point x="310" y="39"/>
			<point x="243" y="39" type="curve" smooth="yes"/>
			<point x="174" y="39"/>
			<point x="130" y="81"/>
			<point x="130" y="145" type="curve" smooth="yes"/>
			<point x="130" y="202"/>
			<point x="160" y="242"/>
			<point x="237" y="287" type="curve" smooth="yes"/>
			<point x="342" y="350"/>
			<point x="372" y="393"/>
			<point x="387" y="499" type="curve"/>
			<point x="329" y="499" type="line"/>
			<point x="312" y="422"/>
			<point x="283" y="382"/>
			<point x="211" y="341" type="curve" smooth="yes"/>
			<point x="100" y="277"/>
			<point x="51" y="214"/>
			<point x="51" y="137" type="curve" smooth="yes"/>
			<point x="51" y="43"/>
			<point x="131" y="-28"/>
			<point x="236" y="-28" type="curve" smooth="yes"/>
			<point x="332" y="-28"/>
			<point x="410" y="14"/>
			<point x="485" y="107" type="curve"/>
		</contour>
		<contour>
			<point x="374" y="597" type="curve" smooth="yes"/>
			<point x="413" y="597"/>
			<point x="441" y="625"/>
			<point x="441" y="666" type="curve" smooth="yes"/>
			<point x="441" y="695"/>
			<point x="420" y="715"/>
			<point x="391" y="715" type="curve" smooth="yes"/>
			<point x="352" y="715"/>
			<point x="324" y="687"/>
			<point x="324" y="646" type="curve" smooth="yes"/>
			<point x="324" y="617"/>
			<point x="345" y="597"/>
		</contour>
	</outline>
</glyph>
<glyph name="ringcomb.cap" format="2">
	<outline>
		<contour>
			<point x="46" y="967" type="curve" smooth="yes"/>
			<point x="-28" y="967"/>
			<point x="-84" y="911"/>
			<point x="-84" y="835" type="curve" smooth="yes"/>
			<point x="-84" y="785"/>
			<point x="-49" y="749"/>
			<point x="0" y="749" type="curve" smooth="yes"/>
			<point x="72" y="749"/>
			<point x="131" y="808"/>
			<point x="131" y="881" type="curve" smooth="yes"/>
			<point x="131" y="932"/>
			<point x="96" y="967"/>
		</contour>
		<contour>
			<point x="35" y="916" type="curve" smooth="yes"/>
			<point x="60" y="916"/>
			<point x="77" y="899"/>
			<point x="77" y="872" type="curve" smooth="yes"/>
			<point x="77" y="833"/>
			<point x="46" y="800"/>
			<point x="11" y="800" type="curve" smooth="yes"/>
			<point x="-15" y="800"/>
			<point x="-30" y="816"/>
			<point x="-30" y="844" type="curve" smooth="yes"/>
			<point x="-30" y="885"/>
			<point x="-2" y="916"/>
		</contour>
	</outline>
	<anchor name="_top.UC" x="0" y="750"/>
</glyph>
<glyph name="six.dnom" format="2">
	<advance width="396"/>
	<outline>
		<contour>
			<point x="255" y="408" type="line"/>
			<point x="90" y="290"/>
			<point x="25" y="204"/>
			<point x="25" y="108" type="curve" smooth="yes"/>
			<point x="25" y="35"/>
			<point x="76" y="-9"/>
			<point x="150" y="-9" type="curve" smooth="yes"/>
			<point x="253" y="-9"/>
			<point x="325" y="60"/>
			<point x="325" y="161" type="curve" smooth="yes"/>
			<point x="325" y="225"/>
			<point x="280" y="268"/>
			<point x="211" y="268" type="curve" smooth="yes"/>
			<point x="171" y="268"/>
			<point x="130" y="242"/>
			<point x="102" y="197" type="curve"/>
			<point x="112" y="191" type="line"/>
			<point x="141" y="255"/>
			<point x="208" y="317"/>
			<point x="347" y="408" type="curve"/>
		</contour>
		<contour>
			<point x="191" y="212" type="curve" smooth="yes"/>
			<point x="232" y="212"/>
			<point x="259" y="187"/>
			<point x="259" y="149" type="curve" smooth="yes"/>
			<point x="259" y="91"/>
			<point x="216" y="49"/>
			<point x="157" y="49" type="curve" smooth="yes"/>
			<point x="117" y="49"/>
			<point x="91" y="75"/>
			<point x="91" y="113" type="curve" smooth="yes"/>
			<point x="91" y="166"/>
			<point x="138" y="212"/>
		</contour>
	</outline>
</glyph>
<glyph name="three.dnom" format="2">
	<advance width="374"/>
	<outline>
		<contour>
			<point x="0" y="83" type="line"/>
			<point x="26" y="25"/>
			<point x="79" y="-9"/>
			<point x="144" y="-9" type="curve" smooth="yes"/>
			<point x="235" y="-9"/>
			<point x="302" y="50"/>
			<point x="302" y="129" type="curve" smooth="yes"/>
			<point x="302" y="185"/>
			<point x="252" y="224"/>
			<point x="173" y="229" type="curve"/>
			<point x="156" y="229" type="line"/>
			<point x="150" y="201" type="line"/>
			<point x="166" y="201" type="line" smooth="yes"/>
			<point x="270" y="201"/>
			<point x="332" y="245"/>
			<point x="332" y="317" type="curve" smooth="yes"/>
			<point x="332" y="375"/>
			<point x="283" y="417"/>
			<point x="215" y="417" type="curve" smooth="yes"/>
			<point x="158" y="417"/>
			<point x="98" y="389"/>
			<point x="63" y="345" type="curve"/>
			<point x="98" y="300" type="line"/>
			<point x="124" y="337"/>
			<point x="164" y="360"/>
			<point x="201" y="360" type="curve" smooth="yes"/>
			<point x="242" y="360"/>
			<point x="265" y="341"/>
			<point x="265" y="308" type="curve" smooth="yes"/>
			<point x="265" y="269"/>
			<point x="230" y="241"/>
			<point x="180" y="241" type="curve" smooth="yes"/>
			<point x="148" y="241" type="line"/>
			<point x="137" y="185" type="line"/>
			<point x="164" y="185" type="line"/>
			<point x="208" y="185"/>
			<point x="236" y="163"/>
			<point x="236" y="129" type="curve" smooth="yes"/>
			<point x="236" y="82"/>
			<point x="199" y="48"/>
			<point x="149" y="48" type="curve" smooth="yes"/>
			<point x="104" y="48"/>
			<point x="72" y="72"/>
			<point x="50" y="121" type="curve"/>
		</contour>
	</outline>
</glyph>
<glyph name="tildecomb.cap" format="2">
	<outline>
		<contour>
			<point x="-50" y="915" type="curve" smooth="yes"/>
			<point x="-91" y="915"/>
			<point x="-138" y="891"/>
			<point x="-162" y="831" type="curve"/>
			<point x="-112" y="803" type="line"/>
			<point x="-98" y="839"/>
			<point x="-77" y="855"/>
			<point x="-59" y="855" type="curve" smooth="yes"/>
			<point x="-40" y="855"/>
			<point x="-28" y="840"/>
			<point x="-14" y="828" type="curve" smooth="yes"/>
			<point x="9" y="807"/>
			<point x="32" y="795"/>
			<point x="62" y="795" type="curve" smooth="yes"/>
			<point x="103" y="795"/>
			<point x="150" y="819"/>
			<point x="174" y="879" type="curve"/>
			<point x="124" y="907" type="line"/>
			<point x="110" y="871"/>
			<point x="89" y="855"/>
			<point x="71" y="855" type="curve" smooth="yes"/>
			<point x="52" y="855"/>
			<point x="39" y="871"/>
			<point x="25" y="883" type="curve" smooth="yes"/>
			<point x="2" y="904"/>
			<point x="-20" y="915"/>
		</contour>
	</outline>
	<anchor name="_top.UC" x="0" y="750"/>
</glyph>
<glyph name="tildecomb.narrow" format="2">
	<outline>
		<contour>
			<point x="14" y="683" type="curve" smooth="yes"/>
			<point x="-8" y="708"/>
			<point x="-29" y="720"/>
			<point x="-53" y="720" type="curve" smooth="yes"/>
			<point x="-93" y="720"/>
			<point x="-126" y="687"/>
			<point x="-148" y="627" type="curve"/>
			<point x="-103" y="599" type="line"/>
			<point x="-91" y="639"/>
			<point x="-75" y="660"/>
			<point x="-57" y="660" type="curve" smooth="yes"/>
			<point x="-46" y="660"/>
			<point x="-43" y="657"/>
			<point x="-23" y="634" type="curve" smooth="yes"/>
			<point x="-2" y="609"/>
			<point x="19" y="597"/>
			<point x="44" y="597" type="curve" smooth="yes"/>
			<point x="84" y="597"/>
			<point x="117" y="630"/>
			<point x="139" y="690" type="curve"/>
			<point x="94" y="718" type="line"/>
			<point x="82" y="678"/>
			<point x="66" y="657"/>
			<point x="48" y="657" type="curve" smooth="yes"/>
			<point x="38" y="657"/>
			<point x="36" y="658"/>
		</contour>
	</outline>
	<anchor name="_top.LC" x="0" y="544"/>
</glyph>
<glyph name="two.dnom" format="2">
	<advance width="401"/>
	<outline>
		<contour>
			<point x="-2" y="0" type="line"/>
			<point x="272" y="0" type="line"/>
			<point x="285" y="58" type="line"/>
			<point x="85" y="58" type="line"/>
			<point x="88" y="39" type="line"/>
			<point x="200" y="134" type="line" smooth="yes"/>
			<point x="299" y="209"/>
			<point x="334" y="256"/>
			<point x="334" y="316" type="curve" smooth="yes"/>
			<point x="334" y="376"/>
			<point x="286" y="417"/>
			<point x="217" y="417" type="curve" smooth="yes"/>
			<point x="163" y="417"/>
			<point x="108" y="390"/>
			<point x="62" y="340" type="curve"/>
			<point x="100" y="292" type="line"/>
			<point x="133" y="337"/>
			<point x="168" y="359"/>
			<point x="205" y="359" type="curve" smooth="yes"/>
			<point x="244" y="359"/>
			<point x="267" y="340"/>
			<point x="267" y="308" type="curve" smooth="yes"/>
			<point x="267" y="271"/>
			<point x="244" y="239"/>
			<point x="175" y="184" type="curve" smooth="yes"/>
			<point x="8" y="50" type="line"/>
		</contour>
	</outline>
</glyph>
<glyph name="zero.dnom" format="2">
	<advance width="416"/>
	<outline>
		<contour>
			<point x="166" y="-9" type="curve" smooth="yes"/>
			<point x="270" y="-9"/>
			<point x="355" y="116"/>
			<point x="355" y="268" type="curve" smooth="yes"/>
			<point x="355" y="362"/>
			<point x="310" y="417"/>
			<point x="232" y="417" type="curve" smooth="yes"/>
			<point x="128" y="417"/>
			<point x="43" y="292"/>
			<point x="43" y="140" type="curve" smooth="yes"/>
			<point x="43" y="46"/>
			<point x="88" y="-9"/>
		</contour>
		<contour>
			<point x="170" y="49" type="curve" smooth="yes"/>
			<point x="130" y="49"/>
			<point x="110" y="79"/>
			<point x="110" y="140" type="curve" smooth="yes"/>
			<point x="110" y="264"/>
			<point x="161" y="359"/>
			<point x="228" y="359" type="curve" smooth="yes"/>
			<point x="268" y="359"/>
			<point x="288" y="329"/>
			<point x="288" y="268" type="curve" smooth="yes"/>
			<point x="288" y="144"/>
			<point x="237" y="49"/>
		</contour>
	</outline>
</glyph>
